<?xml version="1.0" encoding="utf-8" standalone="no"?>
<!DOCTYPE svg PUBLIC "-//W3C//DTD SVG 1.1//EN"
  "http://www.w3.org/Graphics/SVG/1.1/DTD/svg11.dtd">
<svg xmlns:xlink="http://www.w3.org/1999/xlink" width="496.370937pt" height="352.964781pt" viewBox="0 0 496.370937 352.964781" xmlns="http://www.w3.org/2000/svg" version="1.1">
 <metadata>
  <rdf:RDF xmlns:dc="http://purl.org/dc/elements/1.1/" xmlns:cc="http://creativecommons.org/ns#" xmlns:rdf="http://www.w3.org/1999/02/22-rdf-syntax-ns#">
   <cc:Work>
    <dc:type rdf:resource="http://purl.org/dc/dcmitype/StillImage"/>
    <dc:date>2026-05-27T12:09:59.944978</dc:date>
    <dc:format>image/svg+xml</dc:format>
    <dc:creator>
     <cc:Agent>
      <dc:title>Matplotlib v3.10.9, https://matplotlib.org/</dc:title>
     </cc:Agent>
    </dc:creator>
   </cc:Work>
  </rdf:RDF>
 </metadata>
 <defs>
  <style type="text/css">*{stroke-linejoin: round; stroke-linecap: butt}</style>
 </defs>
 <g id="figure_1">
  <g id="patch_1">
   <path d="M 0 352.964781 
L 496.370937 352.964781 
L 496.370937 0 
L 0 0 
z
" style="fill: #ffffff"/>
  </g>
  <g id="axes_1">
   <g id="patch_2">
    <path d="M 42.190938 312.878281 
L 489.170937 312.878281 
L 489.170937 21.558281 
L 42.190938 21.558281 
z
" style="fill: #ffffff"/>
   </g>
   <g id="patch_3">
    <path d="M 62.50821 312.878281 
L 126.821879 312.878281 
L 126.821879 21.558281 
L 62.50821 21.558281 
z
" clip-path="url(#p70535a7d8d)" style="fill: #1a73e8; opacity: 0.08; stroke: #1a73e8; stroke-linejoin: miter"/>
   </g>
   <g id="patch_4">
    <path d="M 71.278256 312.878281 
L 82.97165 312.878281 
L 82.97165 227.812841 
L 71.278256 227.812841 
z
" clip-path="url(#p70535a7d8d)" style="fill: #1f77b4; opacity: 0.8"/>
   </g>
   <g id="patch_5">
    <path d="M 129.745228 312.878281 
L 141.438622 312.878281 
L 141.438622 274.05327 
L 129.745228 274.05327 
z
" clip-path="url(#p70535a7d8d)" style="fill: #1f77b4; opacity: 0.8"/>
   </g>
   <g id="patch_6">
    <path d="M 188.2122 312.878281 
L 199.905594 312.878281 
L 199.905594 275.536354 
L 188.2122 275.536354 
z
" clip-path="url(#p70535a7d8d)" style="fill: #1f77b4; opacity: 0.8"/>
   </g>
   <g id="patch_7">
    <path d="M 246.679172 312.878281 
L 258.372566 312.878281 
L 258.372566 237.664754 
L 246.679172 237.664754 
z
" clip-path="url(#p70535a7d8d)" style="fill: #1f77b4; opacity: 0.8"/>
   </g>
   <g id="patch_8">
    <path d="M 305.146144 312.878281 
L 316.839538 312.878281 
L 316.839538 201.408656 
L 305.146144 201.408656 
z
" clip-path="url(#p70535a7d8d)" style="fill: #1f77b4; opacity: 0.8"/>
   </g>
   <g id="patch_9">
    <path d="M 363.613115 312.878281 
L 375.30651 312.878281 
L 375.30651 293.86303 
L 363.613115 293.86303 
z
" clip-path="url(#p70535a7d8d)" style="fill: #1f77b4; opacity: 0.8"/>
   </g>
   <g id="patch_10">
    <path d="M 422.080087 312.878281 
L 433.773482 312.878281 
L 433.773482 299.159758 
L 422.080087 299.159758 
z
" clip-path="url(#p70535a7d8d)" style="fill: #1f77b4; opacity: 0.8"/>
   </g>
   <g id="patch_11">
    <path d="M 82.97165 312.878281 
L 94.665045 312.878281 
L 94.665045 243.093899 
L 82.97165 243.093899 
z
" clip-path="url(#p70535a7d8d)" style="fill: #ff7f0e; opacity: 0.8"/>
   </g>
   <g id="patch_12">
    <path d="M 141.438622 312.878281 
L 153.132017 312.878281 
L 153.132017 244.92127 
L 141.438622 244.92127 
z
" clip-path="url(#p70535a7d8d)" style="fill: #ff7f0e; opacity: 0.8"/>
   </g>
   <g id="patch_13">
    <path d="M 199.905594 312.878281 
L 211.598989 312.878281 
L 211.598989 243.491154 
L 199.905594 243.491154 
z
" clip-path="url(#p70535a7d8d)" style="fill: #ff7f0e; opacity: 0.8"/>
   </g>
   <g id="patch_14">
    <path d="M 258.372566 312.878281 
L 270.06596 312.878281 
L 270.06596 266.293565 
L 258.372566 266.293565 
z
" clip-path="url(#p70535a7d8d)" style="fill: #ff7f0e; opacity: 0.8"/>
   </g>
   <g id="patch_15">
    <path d="M 316.839538 312.878281 
L 328.532932 312.878281 
L 328.532932 241.478398 
L 316.839538 241.478398 
z
" clip-path="url(#p70535a7d8d)" style="fill: #ff7f0e; opacity: 0.8"/>
   </g>
   <g id="patch_16">
    <path d="M 375.30651 312.878281 
L 386.999904 312.878281 
L 386.999904 256.203299 
L 375.30651 256.203299 
z
" clip-path="url(#p70535a7d8d)" style="fill: #ff7f0e; opacity: 0.8"/>
   </g>
   <g id="patch_17">
    <path d="M 433.773482 312.878281 
L 445.466876 312.878281 
L 445.466876 279.376481 
L 433.773482 279.376481 
z
" clip-path="url(#p70535a7d8d)" style="fill: #ff7f0e; opacity: 0.8"/>
   </g>
   <g id="patch_18">
    <path d="M 94.665045 312.878281 
L 106.358439 312.878281 
L 106.358439 110.543299 
L 94.665045 110.543299 
z
" clip-path="url(#p70535a7d8d)" style="fill: #2ca02c; opacity: 0.8"/>
   </g>
   <g id="patch_19">
    <path d="M 153.132017 312.878281 
L 164.825411 312.878281 
L 164.825411 282.951772 
L 153.132017 282.951772 
z
" clip-path="url(#p70535a7d8d)" style="fill: #2ca02c; opacity: 0.8"/>
   </g>
   <g id="patch_20">
    <path d="M 211.598989 312.878281 
L 223.292383 312.878281 
L 223.292383 287.003769 
L 211.598989 287.003769 
z
" clip-path="url(#p70535a7d8d)" style="fill: #2ca02c; opacity: 0.8"/>
   </g>
   <g id="patch_21">
    <path d="M 270.06596 312.878281 
L 281.759355 312.878281 
L 281.759355 117.508496 
L 270.06596 117.508496 
z
" clip-path="url(#p70535a7d8d)" style="fill: #2ca02c; opacity: 0.8"/>
   </g>
   <g id="patch_22">
    <path d="M 328.532932 312.878281 
L 340.226327 312.878281 
L 340.226327 49.207198 
L 328.532932 49.207198 
z
" clip-path="url(#p70535a7d8d)" style="fill: #2ca02c; opacity: 0.8"/>
   </g>
   <g id="patch_23">
    <path d="M 386.999904 312.878281 
L 398.693299 312.878281 
L 398.693299 301.278449 
L 386.999904 301.278449 
z
" clip-path="url(#p70535a7d8d)" style="fill: #2ca02c; opacity: 0.8"/>
   </g>
   <g id="patch_24">
    <path d="M 445.466876 312.878281 
L 457.16027 312.878281 
L 457.16027 304.271099 
L 445.466876 304.271099 
z
" clip-path="url(#p70535a7d8d)" style="fill: #2ca02c; opacity: 0.8"/>
   </g>
   <g id="patch_25">
    <path d="M 106.358439 312.878281 
L 118.051834 312.878281 
L 118.051834 225.561732 
L 106.358439 225.561732 
z
" clip-path="url(#p70535a7d8d)" style="fill: #d62728; opacity: 0.8"/>
   </g>
   <g id="patch_26">
    <path d="M 164.825411 312.878281 
L 176.518805 312.878281 
L 176.518805 135.914623 
L 164.825411 135.914623 
z
" clip-path="url(#p70535a7d8d)" style="fill: #d62728; opacity: 0.8"/>
   </g>
   <g id="patch_27">
    <path d="M 223.292383 312.878281 
L 234.985777 312.878281 
L 234.985777 132.048012 
L 223.292383 132.048012 
z
" clip-path="url(#p70535a7d8d)" style="fill: #d62728; opacity: 0.8"/>
   </g>
   <g id="patch_28">
    <path d="M 281.759355 312.878281 
L 293.452749 312.878281 
L 293.452749 223.257656 
L 281.759355 223.257656 
z
" clip-path="url(#p70535a7d8d)" style="fill: #d62728; opacity: 0.8"/>
   </g>
   <g id="patch_29">
    <path d="M 340.226327 312.878281 
L 351.919721 312.878281 
L 351.919721 240.922241 
L 340.226327 240.922241 
z
" clip-path="url(#p70535a7d8d)" style="fill: #d62728; opacity: 0.8"/>
   </g>
   <g id="patch_30">
    <path d="M 398.693299 312.878281 
L 410.386693 312.878281 
L 410.386693 124.394241 
L 398.693299 124.394241 
z
" clip-path="url(#p70535a7d8d)" style="fill: #d62728; opacity: 0.8"/>
   </g>
   <g id="patch_31">
    <path d="M 457.16027 312.878281 
L 468.853665 312.878281 
L 468.853665 123.467314 
L 457.16027 123.467314 
z
" clip-path="url(#p70535a7d8d)" style="fill: #d62728; opacity: 0.8"/>
   </g>
   <g id="matplotlib.axis_1">
    <g id="xtick_1">
     <g id="line2d_1">
      <path d="M 94.665045 312.878281 
L 94.665045 21.558281 
" clip-path="url(#p70535a7d8d)" style="fill: none; stroke-dasharray: 2.96,1.28; stroke-dashoffset: 0; stroke: #b0b0b0; stroke-opacity: 0.3; stroke-width: 0.8"/>
     </g>
     <g id="line2d_2">
      <defs>
       <path id="mfa9e19f589" d="M 0 0 
L 0 3.5 
" style="stroke: #000000; stroke-width: 0.8"/>
      </defs>
      <g>
       <use xlink:href="#mfa9e19f589" x="94.665045" y="312.878281" style="stroke: #000000; stroke-width: 0.8"/>
      </g>
     </g>
     <g id="text_1">
      <!-- full -->
      <g transform="translate(88.04942 325.957031) scale(0.08 -0.08)">
       <defs>
        <path id="DejaVuSerif-66" d="M 2753 4078 
L 2450 4078 
Q 2447 4313 2317 4434 
Q 2188 4556 1941 4556 
Q 1619 4556 1487 4379 
Q 1356 4203 1356 3750 
L 1356 3322 
L 2284 3322 
L 2284 2988 
L 1356 2988 
L 1356 331 
L 2094 331 
L 2094 0 
L 231 0 
L 231 331 
L 781 331 
L 781 2988 
L 231 2988 
L 231 3322 
L 781 3322 
L 781 3738 
Q 781 4294 1070 4578 
Q 1359 4863 1919 4863 
Q 2128 4863 2337 4825 
Q 2547 4788 2753 4709 
L 2753 4078 
z
" transform="scale(0.015625)"/>
        <path id="DejaVuSerif-75" d="M 2266 3322 
L 3341 3322 
L 3341 331 
L 3884 331 
L 3884 0 
L 2766 0 
L 2766 588 
Q 2606 256 2353 82 
Q 2100 -91 1766 -91 
Q 1213 -91 952 223 
Q 691 538 691 1209 
L 691 2988 
L 172 2988 
L 172 3322 
L 1269 3322 
L 1269 1388 
Q 1269 781 1417 556 
Q 1566 331 1947 331 
Q 2347 331 2556 625 
Q 2766 919 2766 1478 
L 2766 2988 
L 2266 2988 
L 2266 3322 
z
" transform="scale(0.015625)"/>
        <path id="DejaVuSerif-6c" d="M 1313 331 
L 1856 331 
L 1856 0 
L 184 0 
L 184 331 
L 738 331 
L 738 4531 
L 184 4531 
L 184 4863 
L 1313 4863 
L 1313 331 
z
" transform="scale(0.015625)"/>
       </defs>
       <use xlink:href="#DejaVuSerif-66"/>
       <use xlink:href="#DejaVuSerif-75" transform="translate(37.011719 0)"/>
       <use xlink:href="#DejaVuSerif-6c" transform="translate(101.416016 0)"/>
       <use xlink:href="#DejaVuSerif-6c" transform="translate(133.398438 0)"/>
      </g>
      <!-- hybrid -->
      <g transform="translate(81.516295 334.915281) scale(0.08 -0.08)">
       <defs>
        <path id="DejaVuSerif-68" d="M 263 0 
L 263 331 
L 781 331 
L 781 4531 
L 231 4531 
L 231 4863 
L 1356 4863 
L 1356 2731 
Q 1516 3069 1770 3241 
Q 2025 3413 2363 3413 
Q 2913 3413 3172 3097 
Q 3431 2781 3431 2113 
L 3431 331 
L 3944 331 
L 3944 0 
L 2356 0 
L 2356 331 
L 2853 331 
L 2853 1931 
Q 2853 2541 2704 2764 
Q 2556 2988 2175 2988 
Q 1775 2988 1565 2697 
Q 1356 2406 1356 1850 
L 1356 331 
L 1856 331 
L 1856 0 
L 263 0 
z
" transform="scale(0.015625)"/>
        <path id="DejaVuSerif-79" d="M 1381 -609 
L 1600 -56 
L 359 2988 
L -19 2988 
L -19 3322 
L 1509 3322 
L 1509 2988 
L 978 2988 
L 1913 703 
L 2847 2988 
L 2350 2988 
L 2350 3322 
L 3597 3322 
L 3597 2988 
L 3225 2988 
L 1703 -750 
Q 1547 -1138 1356 -1280 
Q 1166 -1422 819 -1422 
Q 672 -1422 517 -1397 
Q 363 -1372 206 -1325 
L 206 -691 
L 500 -691 
Q 519 -903 608 -995 
Q 697 -1088 884 -1088 
Q 1056 -1088 1161 -992 
Q 1266 -897 1381 -609 
z
" transform="scale(0.015625)"/>
        <path id="DejaVuSerif-62" d="M 738 331 
L 738 4531 
L 184 4531 
L 184 4863 
L 1313 4863 
L 1313 2803 
Q 1481 3116 1742 3264 
Q 2003 3413 2388 3413 
Q 3000 3413 3387 2928 
Q 3775 2444 3775 1663 
Q 3775 881 3387 395 
Q 3000 -91 2388 -91 
Q 2003 -91 1742 57 
Q 1481 206 1313 519 
L 1313 0 
L 184 0 
L 184 331 
L 738 331 
z
M 1313 1497 
Q 1313 897 1542 583 
Q 1772 269 2209 269 
Q 2650 269 2876 622 
Q 3103 975 3103 1663 
Q 3103 2353 2876 2703 
Q 2650 3053 2209 3053 
Q 1772 3053 1542 2737 
Q 1313 2422 1313 1825 
L 1313 1497 
z
" transform="scale(0.015625)"/>
        <path id="DejaVuSerif-72" d="M 3059 3328 
L 3059 2497 
L 2728 2497 
Q 2713 2744 2591 2866 
Q 2469 2988 2234 2988 
Q 1809 2988 1582 2694 
Q 1356 2400 1356 1850 
L 1356 331 
L 2022 331 
L 2022 0 
L 263 0 
L 263 331 
L 781 331 
L 781 2994 
L 231 2994 
L 231 3322 
L 1356 3322 
L 1356 2731 
Q 1525 3078 1790 3245 
Q 2056 3413 2438 3413 
Q 2578 3413 2733 3391 
Q 2888 3369 3059 3328 
z
" transform="scale(0.015625)"/>
        <path id="DejaVuSerif-69" d="M 622 4353 
Q 622 4497 726 4603 
Q 831 4709 978 4709 
Q 1122 4709 1226 4603 
Q 1331 4497 1331 4353 
Q 1331 4206 1228 4103 
Q 1125 4000 978 4000 
Q 831 4000 726 4103 
Q 622 4206 622 4353 
z
M 1356 331 
L 1900 331 
L 1900 0 
L 231 0 
L 231 331 
L 781 331 
L 781 2988 
L 231 2988 
L 231 3322 
L 1356 3322 
L 1356 331 
z
" transform="scale(0.015625)"/>
        <path id="DejaVuSerif-64" d="M 3359 331 
L 3909 331 
L 3909 0 
L 2784 0 
L 2784 519 
Q 2616 206 2355 57 
Q 2094 -91 1709 -91 
Q 1097 -91 708 395 
Q 319 881 319 1663 
Q 319 2444 706 2928 
Q 1094 3413 1709 3413 
Q 2094 3413 2355 3264 
Q 2616 3116 2784 2803 
L 2784 4531 
L 2241 4531 
L 2241 4863 
L 3359 4863 
L 3359 331 
z
M 2784 1497 
L 2784 1825 
Q 2784 2422 2554 2737 
Q 2325 3053 1888 3053 
Q 1444 3053 1217 2703 
Q 991 2353 991 1663 
Q 991 975 1217 622 
Q 1444 269 1888 269 
Q 2325 269 2554 583 
Q 2784 897 2784 1497 
z
" transform="scale(0.015625)"/>
       </defs>
       <use xlink:href="#DejaVuSerif-68"/>
       <use xlink:href="#DejaVuSerif-79" transform="translate(64.404297 0)"/>
       <use xlink:href="#DejaVuSerif-62" transform="translate(120.898438 0)"/>
       <use xlink:href="#DejaVuSerif-72" transform="translate(184.912109 0)"/>
       <use xlink:href="#DejaVuSerif-69" transform="translate(232.714844 0)"/>
       <use xlink:href="#DejaVuSerif-64" transform="translate(264.697266 0)"/>
      </g>
      <!-- system -->
      <g transform="translate(80.53192 343.987281) scale(0.08 -0.08)">
       <defs>
        <path id="DejaVuSerif-73" d="M 359 184 
L 359 959 
L 691 959 
Q 703 588 923 403 
Q 1144 219 1575 219 
Q 1963 219 2166 364 
Q 2369 509 2369 788 
Q 2369 1006 2220 1140 
Q 2072 1275 1594 1428 
L 1178 1569 
Q 750 1706 558 1912 
Q 366 2119 366 2438 
Q 366 2894 700 3153 
Q 1034 3413 1625 3413 
Q 1888 3413 2178 3344 
Q 2469 3275 2778 3144 
L 2778 2419 
L 2447 2419 
Q 2434 2741 2221 2922 
Q 2009 3103 1644 3103 
Q 1281 3103 1095 2975 
Q 909 2847 909 2591 
Q 909 2381 1050 2254 
Q 1191 2128 1613 1997 
L 2069 1856 
Q 2541 1709 2748 1489 
Q 2956 1269 2956 922 
Q 2956 450 2595 179 
Q 2234 -91 1600 -91 
Q 1278 -91 972 -22 
Q 666 47 359 184 
z
" transform="scale(0.015625)"/>
        <path id="DejaVuSerif-74" d="M 691 2988 
L 184 2988 
L 184 3322 
L 691 3322 
L 691 4353 
L 1269 4353 
L 1269 3322 
L 2350 3322 
L 2350 2988 
L 1269 2988 
L 1269 878 
Q 1269 456 1350 337 
Q 1431 219 1650 219 
Q 1875 219 1978 351 
Q 2081 484 2088 781 
L 2522 781 
Q 2497 328 2275 118 
Q 2053 -91 1600 -91 
Q 1103 -91 897 129 
Q 691 350 691 878 
L 691 2988 
z
" transform="scale(0.015625)"/>
        <path id="DejaVuSerif-65" d="M 3469 1600 
L 991 1600 
L 991 1575 
Q 991 903 1244 561 
Q 1497 219 1991 219 
Q 2369 219 2611 417 
Q 2853 616 2950 1006 
L 3413 1006 
Q 3275 459 2904 184 
Q 2534 -91 1931 -91 
Q 1203 -91 761 389 
Q 319 869 319 1663 
Q 319 2450 753 2931 
Q 1188 3413 1894 3413 
Q 2647 3413 3050 2948 
Q 3453 2484 3469 1600 
z
M 2791 1931 
Q 2772 2513 2545 2808 
Q 2319 3103 1894 3103 
Q 1497 3103 1269 2806 
Q 1041 2509 991 1931 
L 2791 1931 
z
" transform="scale(0.015625)"/>
        <path id="DejaVuSerif-6d" d="M 3316 2675 
Q 3481 3041 3739 3227 
Q 3997 3413 4341 3413 
Q 4863 3413 5119 3089 
Q 5375 2766 5375 2113 
L 5375 331 
L 5894 331 
L 5894 0 
L 4300 0 
L 4300 331 
L 4800 331 
L 4800 2047 
Q 4800 2556 4650 2772 
Q 4500 2988 4153 2988 
Q 3769 2988 3567 2697 
Q 3366 2406 3366 1850 
L 3366 331 
L 3866 331 
L 3866 0 
L 2291 0 
L 2291 331 
L 2791 331 
L 2791 2069 
Q 2791 2566 2641 2777 
Q 2491 2988 2144 2988 
Q 1759 2988 1557 2697 
Q 1356 2406 1356 1850 
L 1356 331 
L 1856 331 
L 1856 0 
L 263 0 
L 263 331 
L 781 331 
L 781 2994 
L 231 2994 
L 231 3322 
L 1356 3322 
L 1356 2731 
Q 1516 3063 1762 3238 
Q 2009 3413 2322 3413 
Q 2709 3413 2968 3220 
Q 3228 3028 3316 2675 
z
" transform="scale(0.015625)"/>
       </defs>
       <use xlink:href="#DejaVuSerif-73"/>
       <use xlink:href="#DejaVuSerif-79" transform="translate(51.318359 0)"/>
       <use xlink:href="#DejaVuSerif-73" transform="translate(107.8125 0)"/>
       <use xlink:href="#DejaVuSerif-74" transform="translate(159.130859 0)"/>
       <use xlink:href="#DejaVuSerif-65" transform="translate(199.316406 0)"/>
       <use xlink:href="#DejaVuSerif-6d" transform="translate(258.496094 0)"/>
      </g>
     </g>
    </g>
    <g id="xtick_2">
     <g id="line2d_3">
      <path d="M 153.132017 312.878281 
L 153.132017 21.558281 
" clip-path="url(#p70535a7d8d)" style="fill: none; stroke-dasharray: 2.96,1.28; stroke-dashoffset: 0; stroke: #b0b0b0; stroke-opacity: 0.3; stroke-width: 0.8"/>
     </g>
     <g id="line2d_4">
      <g>
       <use xlink:href="#mfa9e19f589" x="153.132017" y="312.878281" style="stroke: #000000; stroke-width: 0.8"/>
      </g>
     </g>
     <g id="text_2">
      <!-- rule -->
      <g transform="translate(144.997017 325.957031) scale(0.08 -0.08)">
       <use xlink:href="#DejaVuSerif-72"/>
       <use xlink:href="#DejaVuSerif-75" transform="translate(47.802734 0)"/>
       <use xlink:href="#DejaVuSerif-6c" transform="translate(112.207031 0)"/>
       <use xlink:href="#DejaVuSerif-65" transform="translate(144.189453 0)"/>
      </g>
      <!-- based -->
      <g transform="translate(141.205767 334.915281) scale(0.08 -0.08)">
       <defs>
        <path id="DejaVuSerif-61" d="M 2547 1044 
L 2547 1747 
L 1806 1747 
Q 1378 1747 1168 1562 
Q 959 1378 959 997 
Q 959 650 1171 447 
Q 1384 244 1747 244 
Q 2106 244 2326 466 
Q 2547 688 2547 1044 
z
M 3122 2075 
L 3122 331 
L 3634 331 
L 3634 0 
L 2547 0 
L 2547 359 
Q 2356 128 2106 18 
Q 1856 -91 1522 -91 
Q 969 -91 644 203 
Q 319 497 319 997 
Q 319 1513 691 1797 
Q 1063 2081 1741 2081 
L 2547 2081 
L 2547 2309 
Q 2547 2688 2317 2895 
Q 2088 3103 1672 3103 
Q 1328 3103 1125 2947 
Q 922 2791 872 2484 
L 575 2484 
L 575 3156 
Q 875 3284 1158 3348 
Q 1441 3413 1709 3413 
Q 2400 3413 2761 3070 
Q 3122 2728 3122 2075 
z
" transform="scale(0.015625)"/>
       </defs>
       <use xlink:href="#DejaVuSerif-62"/>
       <use xlink:href="#DejaVuSerif-61" transform="translate(64.013672 0)"/>
       <use xlink:href="#DejaVuSerif-73" transform="translate(123.632812 0)"/>
       <use xlink:href="#DejaVuSerif-65" transform="translate(174.951172 0)"/>
       <use xlink:href="#DejaVuSerif-64" transform="translate(234.130859 0)"/>
      </g>
      <!-- only -->
      <g transform="translate(144.608267 343.873531) scale(0.08 -0.08)">
       <defs>
        <path id="DejaVuSerif-6f" d="M 1925 219 
Q 2388 219 2623 584 
Q 2859 950 2859 1663 
Q 2859 2375 2623 2739 
Q 2388 3103 1925 3103 
Q 1463 3103 1227 2739 
Q 991 2375 991 1663 
Q 991 950 1228 584 
Q 1466 219 1925 219 
z
M 1925 -91 
Q 1200 -91 759 389 
Q 319 869 319 1663 
Q 319 2456 758 2934 
Q 1197 3413 1925 3413 
Q 2653 3413 3092 2934 
Q 3531 2456 3531 1663 
Q 3531 869 3092 389 
Q 2653 -91 1925 -91 
z
" transform="scale(0.015625)"/>
        <path id="DejaVuSerif-6e" d="M 263 0 
L 263 331 
L 781 331 
L 781 2988 
L 231 2988 
L 231 3322 
L 1356 3322 
L 1356 2731 
Q 1516 3069 1770 3241 
Q 2025 3413 2363 3413 
Q 2913 3413 3172 3097 
Q 3431 2781 3431 2113 
L 3431 331 
L 3944 331 
L 3944 0 
L 2356 0 
L 2356 331 
L 2853 331 
L 2853 1931 
Q 2853 2541 2703 2767 
Q 2553 2994 2175 2994 
Q 1775 2994 1565 2701 
Q 1356 2409 1356 1850 
L 1356 331 
L 1856 331 
L 1856 0 
L 263 0 
z
" transform="scale(0.015625)"/>
       </defs>
       <use xlink:href="#DejaVuSerif-6f"/>
       <use xlink:href="#DejaVuSerif-6e" transform="translate(60.205078 0)"/>
       <use xlink:href="#DejaVuSerif-6c" transform="translate(124.609375 0)"/>
       <use xlink:href="#DejaVuSerif-79" transform="translate(156.591797 0)"/>
      </g>
     </g>
    </g>
    <g id="xtick_3">
     <g id="line2d_5">
      <path d="M 211.598989 312.878281 
L 211.598989 21.558281 
" clip-path="url(#p70535a7d8d)" style="fill: none; stroke-dasharray: 2.96,1.28; stroke-dashoffset: 0; stroke: #b0b0b0; stroke-opacity: 0.3; stroke-width: 0.8"/>
     </g>
     <g id="line2d_6">
      <g>
       <use xlink:href="#mfa9e19f589" x="211.598989" y="312.878281" style="stroke: #000000; stroke-width: 0.8"/>
      </g>
     </g>
     <g id="text_3">
      <!-- isolation -->
      <g transform="translate(194.323364 325.957031) scale(0.08 -0.08)">
       <use xlink:href="#DejaVuSerif-69"/>
       <use xlink:href="#DejaVuSerif-73" transform="translate(31.982422 0)"/>
       <use xlink:href="#DejaVuSerif-6f" transform="translate(83.300781 0)"/>
       <use xlink:href="#DejaVuSerif-6c" transform="translate(143.505859 0)"/>
       <use xlink:href="#DejaVuSerif-61" transform="translate(175.488281 0)"/>
       <use xlink:href="#DejaVuSerif-74" transform="translate(235.107422 0)"/>
       <use xlink:href="#DejaVuSerif-69" transform="translate(275.292969 0)"/>
       <use xlink:href="#DejaVuSerif-6f" transform="translate(307.275391 0)"/>
       <use xlink:href="#DejaVuSerif-6e" transform="translate(367.480469 0)"/>
      </g>
      <!-- forest -->
      <g transform="translate(199.770864 334.915281) scale(0.08 -0.08)">
       <use xlink:href="#DejaVuSerif-66"/>
       <use xlink:href="#DejaVuSerif-6f" transform="translate(37.011719 0)"/>
       <use xlink:href="#DejaVuSerif-72" transform="translate(97.216797 0)"/>
       <use xlink:href="#DejaVuSerif-65" transform="translate(145.019531 0)"/>
       <use xlink:href="#DejaVuSerif-73" transform="translate(204.199219 0)"/>
       <use xlink:href="#DejaVuSerif-74" transform="translate(255.517578 0)"/>
      </g>
      <!-- only -->
      <g transform="translate(203.075239 343.873531) scale(0.08 -0.08)">
       <use xlink:href="#DejaVuSerif-6f"/>
       <use xlink:href="#DejaVuSerif-6e" transform="translate(60.205078 0)"/>
       <use xlink:href="#DejaVuSerif-6c" transform="translate(124.609375 0)"/>
       <use xlink:href="#DejaVuSerif-79" transform="translate(156.591797 0)"/>
      </g>
     </g>
    </g>
    <g id="xtick_4">
     <g id="line2d_7">
      <path d="M 270.06596 312.878281 
L 270.06596 21.558281 
" clip-path="url(#p70535a7d8d)" style="fill: none; stroke-dasharray: 2.96,1.28; stroke-dashoffset: 0; stroke: #b0b0b0; stroke-opacity: 0.3; stroke-width: 0.8"/>
     </g>
     <g id="line2d_8">
      <g>
       <use xlink:href="#mfa9e19f589" x="270.06596" y="312.878281" style="stroke: #000000; stroke-width: 0.8"/>
      </g>
     </g>
     <g id="text_4">
      <!-- tfidf -->
      <g transform="translate(261.65721 325.957031) scale(0.08 -0.08)">
       <use xlink:href="#DejaVuSerif-74"/>
       <use xlink:href="#DejaVuSerif-66" transform="translate(40.185547 0)"/>
       <use xlink:href="#DejaVuSerif-69" transform="translate(77.197266 0)"/>
       <use xlink:href="#DejaVuSerif-64" transform="translate(109.179688 0)"/>
       <use xlink:href="#DejaVuSerif-66" transform="translate(173.193359 0)"/>
      </g>
      <!-- only -->
      <g transform="translate(261.54221 334.915281) scale(0.08 -0.08)">
       <use xlink:href="#DejaVuSerif-6f"/>
       <use xlink:href="#DejaVuSerif-6e" transform="translate(60.205078 0)"/>
       <use xlink:href="#DejaVuSerif-6c" transform="translate(124.609375 0)"/>
       <use xlink:href="#DejaVuSerif-79" transform="translate(156.591797 0)"/>
      </g>
     </g>
    </g>
    <g id="xtick_5">
     <g id="line2d_9">
      <path d="M 328.532932 312.878281 
L 328.532932 21.558281 
" clip-path="url(#p70535a7d8d)" style="fill: none; stroke-dasharray: 2.96,1.28; stroke-dashoffset: 0; stroke: #b0b0b0; stroke-opacity: 0.3; stroke-width: 0.8"/>
     </g>
     <g id="line2d_10">
      <g>
       <use xlink:href="#mfa9e19f589" x="328.532932" y="312.878281" style="stroke: #000000; stroke-width: 0.8"/>
      </g>
     </g>
     <g id="text_5">
      <!-- string -->
      <g transform="translate(316.544807 325.843281) scale(0.08 -0.08)">
       <defs>
        <path id="DejaVuSerif-67" d="M 3359 2988 
L 3359 72 
Q 3359 -644 2965 -1033 
Q 2572 -1422 1844 -1422 
Q 1516 -1422 1216 -1362 
Q 916 -1303 641 -1184 
L 641 -488 
L 941 -488 
Q 997 -813 1206 -963 
Q 1416 -1113 1806 -1113 
Q 2313 -1113 2548 -827 
Q 2784 -541 2784 72 
L 2784 519 
Q 2616 206 2355 57 
Q 2094 -91 1709 -91 
Q 1097 -91 708 395 
Q 319 881 319 1663 
Q 319 2444 706 2928 
Q 1094 3413 1709 3413 
Q 2094 3413 2355 3264 
Q 2616 3116 2784 2803 
L 2784 3322 
L 3909 3322 
L 3909 2988 
L 3359 2988 
z
M 2784 1825 
Q 2784 2422 2554 2737 
Q 2325 3053 1888 3053 
Q 1444 3053 1217 2703 
Q 991 2353 991 1663 
Q 991 975 1217 622 
Q 1444 269 1888 269 
Q 2325 269 2554 583 
Q 2784 897 2784 1497 
L 2784 1825 
z
" transform="scale(0.015625)"/>
       </defs>
       <use xlink:href="#DejaVuSerif-73"/>
       <use xlink:href="#DejaVuSerif-74" transform="translate(51.318359 0)"/>
       <use xlink:href="#DejaVuSerif-72" transform="translate(91.503906 0)"/>
       <use xlink:href="#DejaVuSerif-69" transform="translate(139.306641 0)"/>
       <use xlink:href="#DejaVuSerif-6e" transform="translate(171.289062 0)"/>
       <use xlink:href="#DejaVuSerif-67" transform="translate(235.693359 0)"/>
      </g>
      <!-- similarity -->
      <g transform="translate(309.405432 334.915281) scale(0.08 -0.08)">
       <use xlink:href="#DejaVuSerif-73"/>
       <use xlink:href="#DejaVuSerif-69" transform="translate(51.318359 0)"/>
       <use xlink:href="#DejaVuSerif-6d" transform="translate(83.300781 0)"/>
       <use xlink:href="#DejaVuSerif-69" transform="translate(178.125 0)"/>
       <use xlink:href="#DejaVuSerif-6c" transform="translate(210.107422 0)"/>
       <use xlink:href="#DejaVuSerif-61" transform="translate(242.089844 0)"/>
       <use xlink:href="#DejaVuSerif-72" transform="translate(301.708984 0)"/>
       <use xlink:href="#DejaVuSerif-69" transform="translate(349.511719 0)"/>
       <use xlink:href="#DejaVuSerif-74" transform="translate(381.494141 0)"/>
       <use xlink:href="#DejaVuSerif-79" transform="translate(421.679688 0)"/>
      </g>
      <!-- only -->
      <g transform="translate(320.009182 343.987281) scale(0.08 -0.08)">
       <use xlink:href="#DejaVuSerif-6f"/>
       <use xlink:href="#DejaVuSerif-6e" transform="translate(60.205078 0)"/>
       <use xlink:href="#DejaVuSerif-6c" transform="translate(124.609375 0)"/>
       <use xlink:href="#DejaVuSerif-79" transform="translate(156.591797 0)"/>
      </g>
     </g>
    </g>
    <g id="xtick_6">
     <g id="line2d_11">
      <path d="M 386.999904 312.878281 
L 386.999904 21.558281 
" clip-path="url(#p70535a7d8d)" style="fill: none; stroke-dasharray: 2.96,1.28; stroke-dashoffset: 0; stroke: #b0b0b0; stroke-opacity: 0.3; stroke-width: 0.8"/>
     </g>
     <g id="line2d_12">
      <g>
       <use xlink:href="#mfa9e19f589" x="386.999904" y="312.878281" style="stroke: #000000; stroke-width: 0.8"/>
      </g>
     </g>
     <g id="text_6">
      <!-- threshold -->
      <g transform="translate(367.659904 325.957031) scale(0.08 -0.08)">
       <use xlink:href="#DejaVuSerif-74"/>
       <use xlink:href="#DejaVuSerif-68" transform="translate(40.185547 0)"/>
       <use xlink:href="#DejaVuSerif-72" transform="translate(104.589844 0)"/>
       <use xlink:href="#DejaVuSerif-65" transform="translate(152.392578 0)"/>
       <use xlink:href="#DejaVuSerif-73" transform="translate(211.572266 0)"/>
       <use xlink:href="#DejaVuSerif-68" transform="translate(262.890625 0)"/>
       <use xlink:href="#DejaVuSerif-6f" transform="translate(327.294922 0)"/>
       <use xlink:href="#DejaVuSerif-6c" transform="translate(387.5 0)"/>
       <use xlink:href="#DejaVuSerif-64" transform="translate(419.482422 0)"/>
      </g>
      <!-- validation -->
      <g transform="translate(366.979279 334.915281) scale(0.08 -0.08)">
       <defs>
        <path id="DejaVuSerif-76" d="M 1581 0 
L 359 2988 
L -19 2988 
L -19 3322 
L 1509 3322 
L 1509 2988 
L 978 2988 
L 1913 703 
L 2847 2988 
L 2350 2988 
L 2350 3322 
L 3597 3322 
L 3597 2988 
L 3225 2988 
L 2003 0 
L 1581 0 
z
" transform="scale(0.015625)"/>
       </defs>
       <use xlink:href="#DejaVuSerif-76"/>
       <use xlink:href="#DejaVuSerif-61" transform="translate(56.494141 0)"/>
       <use xlink:href="#DejaVuSerif-6c" transform="translate(116.113281 0)"/>
       <use xlink:href="#DejaVuSerif-69" transform="translate(148.095703 0)"/>
       <use xlink:href="#DejaVuSerif-64" transform="translate(180.078125 0)"/>
       <use xlink:href="#DejaVuSerif-61" transform="translate(244.091797 0)"/>
       <use xlink:href="#DejaVuSerif-74" transform="translate(303.710938 0)"/>
       <use xlink:href="#DejaVuSerif-69" transform="translate(343.896484 0)"/>
       <use xlink:href="#DejaVuSerif-6f" transform="translate(375.878906 0)"/>
       <use xlink:href="#DejaVuSerif-6e" transform="translate(436.083984 0)"/>
      </g>
      <!-- only -->
      <g transform="translate(378.476154 343.873531) scale(0.08 -0.08)">
       <use xlink:href="#DejaVuSerif-6f"/>
       <use xlink:href="#DejaVuSerif-6e" transform="translate(60.205078 0)"/>
       <use xlink:href="#DejaVuSerif-6c" transform="translate(124.609375 0)"/>
       <use xlink:href="#DejaVuSerif-79" transform="translate(156.591797 0)"/>
      </g>
     </g>
    </g>
    <g id="xtick_7">
     <g id="line2d_13">
      <path d="M 445.466876 312.878281 
L 445.466876 21.558281 
" clip-path="url(#p70535a7d8d)" style="fill: none; stroke-dasharray: 2.96,1.28; stroke-dashoffset: 0; stroke: #b0b0b0; stroke-opacity: 0.3; stroke-width: 0.8"/>
     </g>
     <g id="line2d_14">
      <g>
       <use xlink:href="#mfa9e19f589" x="445.466876" y="312.878281" style="stroke: #000000; stroke-width: 0.8"/>
      </g>
     </g>
     <g id="text_7">
      <!-- single -->
      <g transform="translate(433.351251 325.957031) scale(0.08 -0.08)">
       <use xlink:href="#DejaVuSerif-73"/>
       <use xlink:href="#DejaVuSerif-69" transform="translate(51.318359 0)"/>
       <use xlink:href="#DejaVuSerif-6e" transform="translate(83.300781 0)"/>
       <use xlink:href="#DejaVuSerif-67" transform="translate(147.705078 0)"/>
       <use xlink:href="#DejaVuSerif-6c" transform="translate(211.71875 0)"/>
       <use xlink:href="#DejaVuSerif-65" transform="translate(243.701172 0)"/>
      </g>
      <!-- model -->
      <g transform="translate(433.058126 335.029031) scale(0.08 -0.08)">
       <use xlink:href="#DejaVuSerif-6d"/>
       <use xlink:href="#DejaVuSerif-6f" transform="translate(94.824219 0)"/>
       <use xlink:href="#DejaVuSerif-64" transform="translate(155.029297 0)"/>
       <use xlink:href="#DejaVuSerif-65" transform="translate(219.042969 0)"/>
       <use xlink:href="#DejaVuSerif-6c" transform="translate(278.222656 0)"/>
      </g>
      <!-- anomaly -->
      <g transform="translate(428.380001 343.987281) scale(0.08 -0.08)">
       <use xlink:href="#DejaVuSerif-61"/>
       <use xlink:href="#DejaVuSerif-6e" transform="translate(59.619141 0)"/>
       <use xlink:href="#DejaVuSerif-6f" transform="translate(124.023438 0)"/>
       <use xlink:href="#DejaVuSerif-6d" transform="translate(184.228516 0)"/>
       <use xlink:href="#DejaVuSerif-61" transform="translate(279.052734 0)"/>
       <use xlink:href="#DejaVuSerif-6c" transform="translate(338.671875 0)"/>
       <use xlink:href="#DejaVuSerif-79" transform="translate(370.654297 0)"/>
      </g>
     </g>
    </g>
   </g>
   <g id="matplotlib.axis_2">
    <g id="ytick_1">
     <g id="line2d_15">
      <path d="M 42.190938 312.878281 
L 489.170937 312.878281 
" clip-path="url(#p70535a7d8d)" style="fill: none; stroke-dasharray: 2.96,1.28; stroke-dashoffset: 0; stroke: #b0b0b0; stroke-opacity: 0.3; stroke-width: 0.8"/>
     </g>
     <g id="line2d_16">
      <defs>
       <path id="mf8cf1a54b3" d="M 0 0 
L -3.5 0 
" style="stroke: #000000; stroke-width: 0.8"/>
      </defs>
      <g>
       <use xlink:href="#mf8cf1a54b3" x="42.190938" y="312.878281" style="stroke: #000000; stroke-width: 0.8"/>
      </g>
     </g>
     <g id="text_8">
      <!-- 0.0 -->
      <g transform="translate(20.878125 316.297578) scale(0.09 -0.09)">
       <defs>
        <path id="DejaVuSerif-30" d="M 2034 219 
Q 2513 219 2750 744 
Q 2988 1269 2988 2328 
Q 2988 3391 2750 3916 
Q 2513 4441 2034 4441 
Q 1556 4441 1318 3916 
Q 1081 3391 1081 2328 
Q 1081 1269 1318 744 
Q 1556 219 2034 219 
z
M 2034 -91 
Q 1275 -91 848 546 
Q 422 1184 422 2328 
Q 422 3475 848 4112 
Q 1275 4750 2034 4750 
Q 2797 4750 3222 4112 
Q 3647 3475 3647 2328 
Q 3647 1184 3222 546 
Q 2797 -91 2034 -91 
z
" transform="scale(0.015625)"/>
        <path id="DejaVuSerif-2e" d="M 603 325 
Q 603 500 722 622 
Q 841 744 1019 744 
Q 1191 744 1312 622 
Q 1434 500 1434 325 
Q 1434 153 1312 31 
Q 1191 -91 1019 -91 
Q 841 -91 722 29 
Q 603 150 603 325 
z
" transform="scale(0.015625)"/>
       </defs>
       <use xlink:href="#DejaVuSerif-30"/>
       <use xlink:href="#DejaVuSerif-2e" transform="translate(63.623047 0)"/>
       <use xlink:href="#DejaVuSerif-30" transform="translate(95.410156 0)"/>
      </g>
     </g>
    </g>
    <g id="ytick_2">
     <g id="line2d_17">
      <path d="M 42.190938 259.911009 
L 489.170937 259.911009 
" clip-path="url(#p70535a7d8d)" style="fill: none; stroke-dasharray: 2.96,1.28; stroke-dashoffset: 0; stroke: #b0b0b0; stroke-opacity: 0.3; stroke-width: 0.8"/>
     </g>
     <g id="line2d_18">
      <g>
       <use xlink:href="#mf8cf1a54b3" x="42.190938" y="259.911009" style="stroke: #000000; stroke-width: 0.8"/>
      </g>
     </g>
     <g id="text_9">
      <!-- 0.2 -->
      <g transform="translate(20.878125 263.330305) scale(0.09 -0.09)">
       <defs>
        <path id="DejaVuSerif-32" d="M 819 3553 
L 469 3553 
L 469 4384 
Q 803 4563 1142 4656 
Q 1481 4750 1806 4750 
Q 2534 4750 2956 4397 
Q 3378 4044 3378 3438 
Q 3378 2753 2422 1800 
Q 2347 1728 2309 1691 
L 1131 513 
L 3078 513 
L 3078 1088 
L 3444 1088 
L 3444 0 
L 434 0 
L 434 341 
L 1850 1753 
Q 2319 2222 2519 2614 
Q 2719 3006 2719 3438 
Q 2719 3909 2473 4175 
Q 2228 4441 1797 4441 
Q 1350 4441 1106 4219 
Q 863 3997 819 3553 
z
" transform="scale(0.015625)"/>
       </defs>
       <use xlink:href="#DejaVuSerif-30"/>
       <use xlink:href="#DejaVuSerif-2e" transform="translate(63.623047 0)"/>
       <use xlink:href="#DejaVuSerif-32" transform="translate(95.410156 0)"/>
      </g>
     </g>
    </g>
    <g id="ytick_3">
     <g id="line2d_19">
      <path d="M 42.190938 206.943736 
L 489.170937 206.943736 
" clip-path="url(#p70535a7d8d)" style="fill: none; stroke-dasharray: 2.96,1.28; stroke-dashoffset: 0; stroke: #b0b0b0; stroke-opacity: 0.3; stroke-width: 0.8"/>
     </g>
     <g id="line2d_20">
      <g>
       <use xlink:href="#mf8cf1a54b3" x="42.190938" y="206.943736" style="stroke: #000000; stroke-width: 0.8"/>
      </g>
     </g>
     <g id="text_10">
      <!-- 0.4 -->
      <g transform="translate(20.878125 210.363033) scale(0.09 -0.09)">
       <defs>
        <path id="DejaVuSerif-34" d="M 2234 1581 
L 2234 4063 
L 641 1581 
L 2234 1581 
z
M 3609 0 
L 1484 0 
L 1484 331 
L 2234 331 
L 2234 1247 
L 197 1247 
L 197 1588 
L 2241 4750 
L 2859 4750 
L 2859 1581 
L 3750 1581 
L 3750 1247 
L 2859 1247 
L 2859 331 
L 3609 331 
L 3609 0 
z
" transform="scale(0.015625)"/>
       </defs>
       <use xlink:href="#DejaVuSerif-30"/>
       <use xlink:href="#DejaVuSerif-2e" transform="translate(63.623047 0)"/>
       <use xlink:href="#DejaVuSerif-34" transform="translate(95.410156 0)"/>
      </g>
     </g>
    </g>
    <g id="ytick_4">
     <g id="line2d_21">
      <path d="M 42.190938 153.976463 
L 489.170937 153.976463 
" clip-path="url(#p70535a7d8d)" style="fill: none; stroke-dasharray: 2.96,1.28; stroke-dashoffset: 0; stroke: #b0b0b0; stroke-opacity: 0.3; stroke-width: 0.8"/>
     </g>
     <g id="line2d_22">
      <g>
       <use xlink:href="#mf8cf1a54b3" x="42.190938" y="153.976463" style="stroke: #000000; stroke-width: 0.8"/>
      </g>
     </g>
     <g id="text_11">
      <!-- 0.6 -->
      <g transform="translate(20.878125 157.39576) scale(0.09 -0.09)">
       <defs>
        <path id="DejaVuSerif-36" d="M 2094 219 
Q 2534 219 2771 542 
Q 3009 866 3009 1472 
Q 3009 2078 2771 2401 
Q 2534 2725 2094 2725 
Q 1647 2725 1412 2412 
Q 1178 2100 1178 1509 
Q 1178 888 1415 553 
Q 1653 219 2094 219 
z
M 1075 2569 
Q 1288 2803 1556 2918 
Q 1825 3034 2163 3034 
Q 2859 3034 3264 2615 
Q 3669 2197 3669 1472 
Q 3669 763 3233 336 
Q 2797 -91 2069 -91 
Q 1278 -91 853 498 
Q 428 1088 428 2181 
Q 428 3406 931 4078 
Q 1434 4750 2350 4750 
Q 2597 4750 2869 4703 
Q 3141 4656 3425 4563 
L 3425 3794 
L 3072 3794 
Q 3034 4109 2831 4275 
Q 2628 4441 2284 4441 
Q 1678 4441 1381 3981 
Q 1084 3522 1075 2569 
z
" transform="scale(0.015625)"/>
       </defs>
       <use xlink:href="#DejaVuSerif-30"/>
       <use xlink:href="#DejaVuSerif-2e" transform="translate(63.623047 0)"/>
       <use xlink:href="#DejaVuSerif-36" transform="translate(95.410156 0)"/>
      </g>
     </g>
    </g>
    <g id="ytick_5">
     <g id="line2d_23">
      <path d="M 42.190938 101.00919 
L 489.170937 101.00919 
" clip-path="url(#p70535a7d8d)" style="fill: none; stroke-dasharray: 2.96,1.28; stroke-dashoffset: 0; stroke: #b0b0b0; stroke-opacity: 0.3; stroke-width: 0.8"/>
     </g>
     <g id="line2d_24">
      <g>
       <use xlink:href="#mf8cf1a54b3" x="42.190938" y="101.00919" style="stroke: #000000; stroke-width: 0.8"/>
      </g>
     </g>
     <g id="text_12">
      <!-- 0.8 -->
      <g transform="translate(20.878125 104.428487) scale(0.09 -0.09)">
       <defs>
        <path id="DejaVuSerif-38" d="M 2981 1275 
Q 2981 1775 2732 2051 
Q 2484 2328 2034 2328 
Q 1584 2328 1336 2051 
Q 1088 1775 1088 1275 
Q 1088 772 1336 495 
Q 1584 219 2034 219 
Q 2484 219 2732 495 
Q 2981 772 2981 1275 
z
M 2853 3541 
Q 2853 3966 2637 4203 
Q 2422 4441 2034 4441 
Q 1650 4441 1433 4203 
Q 1216 3966 1216 3541 
Q 1216 3113 1433 2875 
Q 1650 2638 2034 2638 
Q 2422 2638 2637 2875 
Q 2853 3113 2853 3541 
z
M 2516 2484 
Q 3047 2413 3344 2092 
Q 3641 1772 3641 1275 
Q 3641 619 3225 264 
Q 2809 -91 2034 -91 
Q 1263 -91 845 264 
Q 428 619 428 1275 
Q 428 1772 725 2092 
Q 1022 2413 1556 2484 
Q 1084 2569 832 2842 
Q 581 3116 581 3541 
Q 581 4103 968 4426 
Q 1356 4750 2034 4750 
Q 2713 4750 3100 4426 
Q 3488 4103 3488 3541 
Q 3488 3116 3236 2842 
Q 2984 2569 2516 2484 
z
" transform="scale(0.015625)"/>
       </defs>
       <use xlink:href="#DejaVuSerif-30"/>
       <use xlink:href="#DejaVuSerif-2e" transform="translate(63.623047 0)"/>
       <use xlink:href="#DejaVuSerif-38" transform="translate(95.410156 0)"/>
      </g>
     </g>
    </g>
    <g id="ytick_6">
     <g id="line2d_25">
      <path d="M 42.190938 48.041918 
L 489.170937 48.041918 
" clip-path="url(#p70535a7d8d)" style="fill: none; stroke-dasharray: 2.96,1.28; stroke-dashoffset: 0; stroke: #b0b0b0; stroke-opacity: 0.3; stroke-width: 0.8"/>
     </g>
     <g id="line2d_26">
      <g>
       <use xlink:href="#mf8cf1a54b3" x="42.190938" y="48.041918" style="stroke: #000000; stroke-width: 0.8"/>
      </g>
     </g>
     <g id="text_13">
      <!-- 1.0 -->
      <g transform="translate(20.878125 51.461214) scale(0.09 -0.09)">
       <defs>
        <path id="DejaVuSerif-31" d="M 909 0 
L 909 331 
L 1722 331 
L 1722 4213 
L 781 3603 
L 781 4013 
L 1919 4750 
L 2350 4750 
L 2350 331 
L 3163 331 
L 3163 0 
L 909 0 
z
" transform="scale(0.015625)"/>
       </defs>
       <use xlink:href="#DejaVuSerif-31"/>
       <use xlink:href="#DejaVuSerif-2e" transform="translate(63.623047 0)"/>
       <use xlink:href="#DejaVuSerif-30" transform="translate(95.410156 0)"/>
      </g>
     </g>
    </g>
    <g id="text_14">
     <!-- Score -->
     <g transform="translate(14.798438 181.802656) rotate(-90) scale(0.1 -0.1)">
      <defs>
       <path id="DejaVuSerif-53" d="M 594 225 
L 594 1288 
L 953 1284 
Q 969 753 1261 498 
Q 1553 244 2150 244 
Q 2706 244 2998 464 
Q 3291 684 3291 1106 
Q 3291 1444 3114 1625 
Q 2938 1806 2369 1978 
L 1753 2163 
Q 1084 2366 811 2669 
Q 538 2972 538 3500 
Q 538 4094 959 4422 
Q 1381 4750 2144 4750 
Q 2469 4750 2856 4679 
Q 3244 4609 3681 4475 
L 3681 3481 
L 3328 3481 
Q 3275 3975 2998 4195 
Q 2722 4416 2156 4416 
Q 1663 4416 1405 4214 
Q 1147 4013 1147 3628 
Q 1147 3294 1340 3103 
Q 1534 2913 2163 2725 
L 2741 2553 
Q 3375 2363 3645 2067 
Q 3916 1772 3916 1275 
Q 3916 597 3481 253 
Q 3047 -91 2188 -91 
Q 1803 -91 1404 -12 
Q 1006 66 594 225 
z
" transform="scale(0.015625)"/>
       <path id="DejaVuSerif-63" d="M 3291 997 
Q 3169 466 2822 187 
Q 2475 -91 1925 -91 
Q 1200 -91 759 389 
Q 319 869 319 1663 
Q 319 2459 759 2936 
Q 1200 3413 1925 3413 
Q 2241 3413 2553 3339 
Q 2866 3266 3181 3116 
L 3181 2266 
L 2847 2266 
Q 2781 2703 2561 2903 
Q 2341 3103 1931 3103 
Q 1466 3103 1228 2742 
Q 991 2381 991 1663 
Q 991 944 1227 581 
Q 1463 219 1931 219 
Q 2303 219 2525 412 
Q 2747 606 2828 997 
L 3291 997 
z
" transform="scale(0.015625)"/>
      </defs>
      <use xlink:href="#DejaVuSerif-53"/>
      <use xlink:href="#DejaVuSerif-63" transform="translate(68.505859 0)"/>
      <use xlink:href="#DejaVuSerif-6f" transform="translate(124.511719 0)"/>
      <use xlink:href="#DejaVuSerif-72" transform="translate(184.716797 0)"/>
      <use xlink:href="#DejaVuSerif-65" transform="translate(232.519531 0)"/>
     </g>
    </g>
   </g>
   <g id="patch_32">
    <path d="M 42.190938 312.878281 
L 42.190938 21.558281 
" style="fill: none; stroke: #000000; stroke-width: 0.8; stroke-linejoin: miter; stroke-linecap: square"/>
   </g>
   <g id="patch_33">
    <path d="M 42.190938 312.878281 
L 489.170937 312.878281 
" style="fill: none; stroke: #000000; stroke-width: 0.8; stroke-linejoin: miter; stroke-linecap: square"/>
   </g>
   <g id="text_15">
    <!-- ★ Proposed -->
    <g style="fill: #1a73e8" transform="translate(70.02942 40.096827) scale(0.08 -0.08)">
     <defs>
      <path id="DejaVuSerif-Bold-2605" d="M 319 -1131 
L 319 4513 
L 3519 4513 
L 3519 -1131 
L 319 -1131 
z
M 678 -775 
L 3163 -775 
L 3163 4153 
L 678 4153 
L 678 -775 
z
" transform="scale(0.015625)"/>
      <path id="DejaVuSerif-Bold-20" transform="scale(0.015625)"/>
      <path id="DejaVuSerif-Bold-50" d="M 300 0 
L 300 378 
L 897 378 
L 897 4288 
L 300 4288 
L 300 4666 
L 2956 4666 
Q 3734 4666 4193 4295 
Q 4653 3925 4653 3303 
Q 4653 2678 4192 2304 
Q 3731 1931 2956 1931 
L 2100 1931 
L 2100 378 
L 2853 378 
L 2853 0 
L 300 0 
z
M 2100 2309 
L 2450 2309 
Q 2856 2309 3098 2579 
Q 3341 2850 3341 3303 
Q 3341 3753 3100 4020 
Q 2859 4288 2450 4288 
L 2100 4288 
L 2100 2309 
z
" transform="scale(0.015625)"/>
      <path id="DejaVuSerif-Bold-72" d="M 3438 3359 
L 3438 2369 
L 3084 2369 
Q 3066 2634 2941 2764 
Q 2816 2894 2578 2894 
Q 2216 2894 2006 2575 
Q 1797 2256 1797 1691 
L 1797 378 
L 2400 378 
L 2400 0 
L 219 0 
L 219 378 
L 691 378 
L 691 2944 
L 184 2944 
L 184 3322 
L 1797 3322 
L 1797 2731 
Q 1959 3078 2226 3245 
Q 2494 3413 2881 3413 
Q 2978 3413 3117 3398 
Q 3256 3384 3438 3359 
z
" transform="scale(0.015625)"/>
      <path id="DejaVuSerif-Bold-6f" d="M 2138 263 
Q 2488 263 2630 563 
Q 2772 863 2772 1663 
Q 2772 2463 2631 2761 
Q 2491 3059 2138 3059 
Q 1784 3059 1640 2757 
Q 1497 2456 1497 1663 
Q 1497 869 1640 566 
Q 1784 263 2138 263 
z
M 2138 -91 
Q 1259 -91 761 376 
Q 263 844 263 1663 
Q 263 2484 761 2948 
Q 1259 3413 2138 3413 
Q 3019 3413 3516 2948 
Q 4013 2484 4013 1663 
Q 4013 844 3514 376 
Q 3016 -91 2138 -91 
z
" transform="scale(0.015625)"/>
      <path id="DejaVuSerif-Bold-70" d="M 1728 1825 
L 1728 1497 
Q 1728 916 1876 656 
Q 2025 397 2356 397 
Q 2697 397 2836 672 
Q 2975 947 2975 1663 
Q 2975 2378 2836 2651 
Q 2697 2925 2356 2925 
Q 2025 2925 1876 2665 
Q 1728 2406 1728 1825 
z
M 622 2944 
L 147 2944 
L 147 3322 
L 1728 3322 
L 1728 2900 
Q 1869 3159 2106 3286 
Q 2344 3413 2694 3413 
Q 3403 3413 3811 2945 
Q 4219 2478 4219 1663 
Q 4219 847 3811 378 
Q 3403 -91 2694 -91 
Q 2344 -91 2106 36 
Q 1869 163 1728 422 
L 1728 -953 
L 2241 -953 
L 2241 -1331 
L 147 -1331 
L 147 -953 
L 622 -953 
L 622 2944 
z
" transform="scale(0.015625)"/>
      <path id="DejaVuSerif-Bold-73" d="M 300 97 
L 300 1025 
L 653 1025 
Q 697 653 931 458 
Q 1166 263 1569 263 
Q 1906 263 2086 380 
Q 2266 497 2266 716 
Q 2266 916 2152 1025 
Q 2038 1134 1709 1216 
L 1253 1331 
Q 738 1459 506 1698 
Q 275 1938 275 2344 
Q 275 2884 650 3148 
Q 1025 3413 1806 3413 
Q 2100 3413 2433 3364 
Q 2766 3316 3169 3213 
L 3169 2375 
L 2816 2375 
Q 2788 2716 2573 2887 
Q 2359 3059 1959 3059 
Q 1622 3059 1448 2951 
Q 1275 2844 1275 2638 
Q 1275 2469 1375 2372 
Q 1475 2275 1734 2209 
L 2188 2094 
Q 2841 1928 3091 1684 
Q 3341 1441 3341 1006 
Q 3341 444 2939 176 
Q 2538 -91 1691 -91 
Q 1381 -91 1034 -44 
Q 688 3 300 97 
z
" transform="scale(0.015625)"/>
      <path id="DejaVuSerif-Bold-65" d="M 2566 1875 
Q 2566 2531 2444 2795 
Q 2322 3059 2028 3059 
Q 1744 3059 1620 2800 
Q 1497 2541 1497 1931 
L 1497 1875 
L 2566 1875 
z
M 3781 1503 
L 1497 1503 
L 1497 1478 
Q 1497 834 1690 548 
Q 1884 263 2316 263 
Q 2675 263 2897 453 
Q 3119 644 3181 1006 
L 3700 1006 
Q 3566 441 3166 175 
Q 2766 -91 2047 -91 
Q 1184 -91 723 364 
Q 263 819 263 1663 
Q 263 2488 734 2950 
Q 1206 3413 2047 3413 
Q 2872 3413 3312 2927 
Q 3753 2441 3781 1503 
z
" transform="scale(0.015625)"/>
      <path id="DejaVuSerif-Bold-64" d="M 2747 1497 
L 2747 1825 
Q 2747 2406 2597 2665 
Q 2447 2925 2119 2925 
Q 1775 2925 1636 2651 
Q 1497 2378 1497 1663 
Q 1497 947 1637 672 
Q 1778 397 2119 397 
Q 2447 397 2597 656 
Q 2747 916 2747 1497 
z
M 3853 378 
L 4325 378 
L 4325 0 
L 2747 0 
L 2747 422 
Q 2606 163 2367 36 
Q 2128 -91 1778 -91 
Q 1072 -91 667 378 
Q 263 847 263 1663 
Q 263 2481 667 2947 
Q 1072 3413 1778 3413 
Q 2128 3413 2367 3286 
Q 2606 3159 2747 2900 
L 2747 4488 
L 2272 4488 
L 2272 4863 
L 3853 4863 
L 3853 378 
z
" transform="scale(0.015625)"/>
     </defs>
     <use xlink:href="#DejaVuSerif-Bold-2605"/>
     <use xlink:href="#DejaVuSerif-Bold-20" transform="translate(60.009766 0)"/>
     <use xlink:href="#DejaVuSerif-Bold-50" transform="translate(94.824219 0)"/>
     <use xlink:href="#DejaVuSerif-Bold-72" transform="translate(170.019531 0)"/>
     <use xlink:href="#DejaVuSerif-Bold-6f" transform="translate(222.705078 0)"/>
     <use xlink:href="#DejaVuSerif-Bold-70" transform="translate(289.404297 0)"/>
     <use xlink:href="#DejaVuSerif-Bold-6f" transform="translate(359.326172 0)"/>
     <use xlink:href="#DejaVuSerif-Bold-73" transform="translate(426.025391 0)"/>
     <use xlink:href="#DejaVuSerif-Bold-65" transform="translate(482.324219 0)"/>
     <use xlink:href="#DejaVuSerif-Bold-64" transform="translate(545.947266 0)"/>
    </g>
   </g>
   <g id="text_16">
    <!-- Fig. 2: Baseline Comparison — Proposed System vs. Six Baselines -->
    <g transform="translate(81.6475 15.558281) scale(0.11 -0.11)">
     <defs>
      <path id="DejaVuSerif-46" d="M 353 0 
L 353 331 
L 947 331 
L 947 4331 
L 353 4331 
L 353 4666 
L 4172 4666 
L 4172 3628 
L 3788 3628 
L 3788 4281 
L 1581 4281 
L 1581 2719 
L 3175 2719 
L 3175 3303 
L 3559 3303 
L 3559 1753 
L 3175 1753 
L 3175 2338 
L 1581 2338 
L 1581 331 
L 2328 331 
L 2328 0 
L 353 0 
z
" transform="scale(0.015625)"/>
      <path id="DejaVuSerif-20" transform="scale(0.015625)"/>
      <path id="DejaVuSerif-3a" d="M 666 325 
Q 666 500 786 622 
Q 906 744 1081 744 
Q 1256 744 1376 622 
Q 1497 500 1497 325 
Q 1497 150 1378 29 
Q 1259 -91 1081 -91 
Q 903 -91 784 29 
Q 666 150 666 325 
z
M 666 2363 
Q 666 2538 786 2658 
Q 906 2778 1081 2778 
Q 1259 2778 1378 2659 
Q 1497 2541 1497 2363 
Q 1497 2184 1378 2065 
Q 1259 1947 1081 1947 
Q 906 1947 786 2067 
Q 666 2188 666 2363 
z
" transform="scale(0.015625)"/>
      <path id="DejaVuSerif-42" d="M 1581 331 
L 2516 331 
Q 3078 331 3337 575 
Q 3597 819 3597 1350 
Q 3597 1878 3339 2120 
Q 3081 2363 2516 2363 
L 1581 2363 
L 1581 331 
z
M 1581 2694 
L 2375 2694 
Q 2888 2694 3123 2891 
Q 3359 3088 3359 3513 
Q 3359 3941 3123 4136 
Q 2888 4331 2375 4331 
L 1581 4331 
L 1581 2694 
z
M 353 0 
L 353 331 
L 947 331 
L 947 4331 
L 353 4331 
L 353 4666 
L 2656 4666 
Q 3363 4666 3720 4377 
Q 4078 4088 4078 3513 
Q 4078 3097 3829 2850 
Q 3581 2603 3103 2547 
Q 3697 2472 4005 2167 
Q 4313 1863 4313 1350 
Q 4313 656 3875 328 
Q 3438 0 2509 0 
L 353 0 
z
" transform="scale(0.015625)"/>
      <path id="DejaVuSerif-43" d="M 4513 1234 
Q 4306 581 3820 245 
Q 3334 -91 2591 -91 
Q 2134 -91 1743 65 
Q 1353 222 1050 525 
Q 700 875 529 1320 
Q 359 1766 359 2328 
Q 359 3416 987 4083 
Q 1616 4750 2644 4750 
Q 3025 4750 3456 4650 
Q 3888 4550 4384 4347 
L 4384 3272 
L 4031 3272 
Q 3916 3859 3567 4137 
Q 3219 4416 2591 4416 
Q 1844 4416 1459 3886 
Q 1075 3356 1075 2328 
Q 1075 1303 1459 773 
Q 1844 244 2591 244 
Q 3113 244 3450 492 
Q 3788 741 3938 1234 
L 4513 1234 
z
" transform="scale(0.015625)"/>
      <path id="DejaVuSerif-70" d="M 1313 1825 
L 1313 1497 
Q 1313 897 1542 583 
Q 1772 269 2209 269 
Q 2650 269 2876 622 
Q 3103 975 3103 1663 
Q 3103 2353 2876 2703 
Q 2650 3053 2209 3053 
Q 1772 3053 1542 2737 
Q 1313 2422 1313 1825 
z
M 738 2988 
L 184 2988 
L 184 3322 
L 1313 3322 
L 1313 2803 
Q 1481 3116 1742 3264 
Q 2003 3413 2388 3413 
Q 3000 3413 3387 2928 
Q 3775 2444 3775 1663 
Q 3775 881 3387 395 
Q 3000 -91 2388 -91 
Q 2003 -91 1742 57 
Q 1481 206 1313 519 
L 1313 -997 
L 1856 -997 
L 1856 -1331 
L 184 -1331 
L 184 -997 
L 738 -997 
L 738 2988 
z
" transform="scale(0.015625)"/>
      <path id="DejaVuSerif-2014" d="M 281 1906 
L 6119 1906 
L 6119 1491 
L 281 1491 
L 281 1906 
z
" transform="scale(0.015625)"/>
      <path id="DejaVuSerif-50" d="M 1581 2375 
L 2406 2375 
Q 2872 2375 3115 2626 
Q 3359 2878 3359 3353 
Q 3359 3831 3115 4081 
Q 2872 4331 2406 4331 
L 1581 4331 
L 1581 2375 
z
M 353 0 
L 353 331 
L 947 331 
L 947 4331 
L 353 4331 
L 353 4666 
L 2559 4666 
Q 3259 4666 3668 4311 
Q 4078 3956 4078 3353 
Q 4078 2753 3668 2397 
Q 3259 2041 2559 2041 
L 1581 2041 
L 1581 331 
L 2303 331 
L 2303 0 
L 353 0 
z
" transform="scale(0.015625)"/>
      <path id="DejaVuSerif-78" d="M 1863 2028 
L 2559 2988 
L 2113 2988 
L 2113 3322 
L 3391 3322 
L 3391 2988 
L 2950 2988 
L 2059 1759 
L 3097 331 
L 3531 331 
L 3531 0 
L 1997 0 
L 1997 331 
L 2419 331 
L 1697 1325 
L 972 331 
L 1403 331 
L 1403 0 
L 141 0 
L 141 331 
L 581 331 
L 1497 1594 
L 488 2988 
L 78 2988 
L 78 3322 
L 1563 3322 
L 1563 2988 
L 1166 2988 
L 1863 2028 
z
" transform="scale(0.015625)"/>
     </defs>
     <use xlink:href="#DejaVuSerif-46"/>
     <use xlink:href="#DejaVuSerif-69" transform="translate(69.384766 0)"/>
     <use xlink:href="#DejaVuSerif-67" transform="translate(101.367188 0)"/>
     <use xlink:href="#DejaVuSerif-2e" transform="translate(165.380859 0)"/>
     <use xlink:href="#DejaVuSerif-20" transform="translate(197.167969 0)"/>
     <use xlink:href="#DejaVuSerif-32" transform="translate(228.955078 0)"/>
     <use xlink:href="#DejaVuSerif-3a" transform="translate(292.578125 0)"/>
     <use xlink:href="#DejaVuSerif-20" transform="translate(326.269531 0)"/>
     <use xlink:href="#DejaVuSerif-42" transform="translate(358.056641 0)"/>
     <use xlink:href="#DejaVuSerif-61" transform="translate(431.542969 0)"/>
     <use xlink:href="#DejaVuSerif-73" transform="translate(491.162109 0)"/>
     <use xlink:href="#DejaVuSerif-65" transform="translate(542.480469 0)"/>
     <use xlink:href="#DejaVuSerif-6c" transform="translate(601.660156 0)"/>
     <use xlink:href="#DejaVuSerif-69" transform="translate(633.642578 0)"/>
     <use xlink:href="#DejaVuSerif-6e" transform="translate(665.625 0)"/>
     <use xlink:href="#DejaVuSerif-65" transform="translate(730.029297 0)"/>
     <use xlink:href="#DejaVuSerif-20" transform="translate(789.208984 0)"/>
     <use xlink:href="#DejaVuSerif-43" transform="translate(820.996094 0)"/>
     <use xlink:href="#DejaVuSerif-6f" transform="translate(897.509766 0)"/>
     <use xlink:href="#DejaVuSerif-6d" transform="translate(957.714844 0)"/>
     <use xlink:href="#DejaVuSerif-70" transform="translate(1052.539062 0)"/>
     <use xlink:href="#DejaVuSerif-61" transform="translate(1116.552734 0)"/>
     <use xlink:href="#DejaVuSerif-72" transform="translate(1176.171875 0)"/>
     <use xlink:href="#DejaVuSerif-69" transform="translate(1223.974609 0)"/>
     <use xlink:href="#DejaVuSerif-73" transform="translate(1255.957031 0)"/>
     <use xlink:href="#DejaVuSerif-6f" transform="translate(1307.275391 0)"/>
     <use xlink:href="#DejaVuSerif-6e" transform="translate(1367.480469 0)"/>
     <use xlink:href="#DejaVuSerif-20" transform="translate(1431.884766 0)"/>
     <use xlink:href="#DejaVuSerif-2014" transform="translate(1463.671875 0)"/>
     <use xlink:href="#DejaVuSerif-20" transform="translate(1563.671875 0)"/>
     <use xlink:href="#DejaVuSerif-50" transform="translate(1595.458984 0)"/>
     <use xlink:href="#DejaVuSerif-72" transform="translate(1662.744141 0)"/>
     <use xlink:href="#DejaVuSerif-6f" transform="translate(1710.546875 0)"/>
     <use xlink:href="#DejaVuSerif-70" transform="translate(1770.751953 0)"/>
     <use xlink:href="#DejaVuSerif-6f" transform="translate(1834.765625 0)"/>
     <use xlink:href="#DejaVuSerif-73" transform="translate(1894.970703 0)"/>
     <use xlink:href="#DejaVuSerif-65" transform="translate(1946.289062 0)"/>
     <use xlink:href="#DejaVuSerif-64" transform="translate(2005.46875 0)"/>
     <use xlink:href="#DejaVuSerif-20" transform="translate(2069.482422 0)"/>
     <use xlink:href="#DejaVuSerif-53" transform="translate(2101.269531 0)"/>
     <use xlink:href="#DejaVuSerif-79" transform="translate(2169.775391 0)"/>
     <use xlink:href="#DejaVuSerif-73" transform="translate(2226.269531 0)"/>
     <use xlink:href="#DejaVuSerif-74" transform="translate(2277.587891 0)"/>
     <use xlink:href="#DejaVuSerif-65" transform="translate(2317.773438 0)"/>
     <use xlink:href="#DejaVuSerif-6d" transform="translate(2376.953125 0)"/>
     <use xlink:href="#DejaVuSerif-20" transform="translate(2471.777344 0)"/>
     <use xlink:href="#DejaVuSerif-76" transform="translate(2503.564453 0)"/>
     <use xlink:href="#DejaVuSerif-73" transform="translate(2560.058594 0)"/>
     <use xlink:href="#DejaVuSerif-2e" transform="translate(2611.376953 0)"/>
     <use xlink:href="#DejaVuSerif-20" transform="translate(2643.164062 0)"/>
     <use xlink:href="#DejaVuSerif-53" transform="translate(2674.951172 0)"/>
     <use xlink:href="#DejaVuSerif-69" transform="translate(2743.457031 0)"/>
     <use xlink:href="#DejaVuSerif-78" transform="translate(2775.439453 0)"/>
     <use xlink:href="#DejaVuSerif-20" transform="translate(2831.835938 0)"/>
     <use xlink:href="#DejaVuSerif-42" transform="translate(2863.623047 0)"/>
     <use xlink:href="#DejaVuSerif-61" transform="translate(2937.109375 0)"/>
     <use xlink:href="#DejaVuSerif-73" transform="translate(2996.728516 0)"/>
     <use xlink:href="#DejaVuSerif-65" transform="translate(3048.046875 0)"/>
     <use xlink:href="#DejaVuSerif-6c" transform="translate(3107.226562 0)"/>
     <use xlink:href="#DejaVuSerif-69" transform="translate(3139.208984 0)"/>
     <use xlink:href="#DejaVuSerif-6e" transform="translate(3171.191406 0)"/>
     <use xlink:href="#DejaVuSerif-65" transform="translate(3235.595703 0)"/>
     <use xlink:href="#DejaVuSerif-73" transform="translate(3294.775391 0)"/>
    </g>
   </g>
   <g id="legend_1">
    <g id="patch_34">
     <path d="M 326.387656 308.378281 
L 482.870938 308.378281 
Q 484.670938 308.378281 484.670938 306.578281 
L 484.670938 280.929688 
Q 484.670938 279.129688 482.870938 279.129688 
L 326.387656 279.129688 
Q 324.587656 279.129688 324.587656 280.929688 
L 324.587656 306.578281 
Q 324.587656 308.378281 326.387656 308.378281 
z
" style="fill: #ffffff; opacity: 0.8; stroke: #cccccc; stroke-linejoin: miter"/>
    </g>
    <g id="patch_35">
     <path d="M 328.187656 289.568281 
L 346.187656 289.568281 
L 346.187656 283.268281 
L 328.187656 283.268281 
z
" style="fill: #1f77b4; opacity: 0.8"/>
    </g>
    <g id="text_17">
     <!-- F1-Score -->
     <g transform="translate(353.387656 289.568281) scale(0.09 -0.09)">
      <defs>
       <path id="DejaVuSerif-2d" d="M 281 1959 
L 1881 1959 
L 1881 1472 
L 281 1472 
L 281 1959 
z
" transform="scale(0.015625)"/>
      </defs>
      <use xlink:href="#DejaVuSerif-46"/>
      <use xlink:href="#DejaVuSerif-31" transform="translate(69.384766 0)"/>
      <use xlink:href="#DejaVuSerif-2d" transform="translate(133.007812 0)"/>
      <use xlink:href="#DejaVuSerif-53" transform="translate(166.796875 0)"/>
      <use xlink:href="#DejaVuSerif-63" transform="translate(235.302734 0)"/>
      <use xlink:href="#DejaVuSerif-6f" transform="translate(291.308594 0)"/>
      <use xlink:href="#DejaVuSerif-72" transform="translate(351.513672 0)"/>
      <use xlink:href="#DejaVuSerif-65" transform="translate(399.316406 0)"/>
     </g>
    </g>
    <g id="patch_36">
     <path d="M 328.187656 302.778594 
L 346.187656 302.778594 
L 346.187656 296.478594 
L 328.187656 296.478594 
z
" style="fill: #ff7f0e; opacity: 0.8"/>
    </g>
    <g id="text_18">
     <!-- Precision -->
     <g transform="translate(353.387656 302.778594) scale(0.09 -0.09)">
      <use xlink:href="#DejaVuSerif-50"/>
      <use xlink:href="#DejaVuSerif-72" transform="translate(67.285156 0)"/>
      <use xlink:href="#DejaVuSerif-65" transform="translate(115.087891 0)"/>
      <use xlink:href="#DejaVuSerif-63" transform="translate(174.267578 0)"/>
      <use xlink:href="#DejaVuSerif-69" transform="translate(230.273438 0)"/>
      <use xlink:href="#DejaVuSerif-73" transform="translate(262.255859 0)"/>
      <use xlink:href="#DejaVuSerif-69" transform="translate(313.574219 0)"/>
      <use xlink:href="#DejaVuSerif-6f" transform="translate(345.556641 0)"/>
      <use xlink:href="#DejaVuSerif-6e" transform="translate(405.761719 0)"/>
     </g>
    </g>
    <g id="patch_37">
     <path d="M 413.701719 289.568281 
L 431.701719 289.568281 
L 431.701719 283.268281 
L 413.701719 283.268281 
z
" style="fill: #2ca02c; opacity: 0.8"/>
    </g>
    <g id="text_19">
     <!-- Recall -->
     <g transform="translate(438.901719 289.568281) scale(0.09 -0.09)">
      <defs>
       <path id="DejaVuSerif-52" d="M 3066 2316 
Q 3284 2256 3442 2114 
Q 3600 1972 3725 1716 
L 4403 331 
L 4972 331 
L 4972 0 
L 3872 0 
L 3144 1484 
Q 2934 1916 2759 2042 
Q 2584 2169 2278 2169 
L 1581 2169 
L 1581 331 
L 2241 331 
L 2241 0 
L 353 0 
L 353 331 
L 947 331 
L 947 4331 
L 353 4331 
L 353 4666 
L 2719 4666 
Q 3400 4666 3770 4341 
Q 4141 4016 4141 3419 
Q 4141 2938 3870 2661 
Q 3600 2384 3066 2316 
z
M 1581 2503 
L 2503 2503 
Q 2975 2503 3200 2726 
Q 3425 2950 3425 3419 
Q 3425 3888 3200 4109 
Q 2975 4331 2503 4331 
L 1581 4331 
L 1581 2503 
z
" transform="scale(0.015625)"/>
      </defs>
      <use xlink:href="#DejaVuSerif-52"/>
      <use xlink:href="#DejaVuSerif-65" transform="translate(75.292969 0)"/>
      <use xlink:href="#DejaVuSerif-63" transform="translate(134.472656 0)"/>
      <use xlink:href="#DejaVuSerif-61" transform="translate(190.478516 0)"/>
      <use xlink:href="#DejaVuSerif-6c" transform="translate(250.097656 0)"/>
      <use xlink:href="#DejaVuSerif-6c" transform="translate(282.080078 0)"/>
     </g>
    </g>
    <g id="patch_38">
     <path d="M 413.701719 302.778594 
L 431.701719 302.778594 
L 431.701719 296.478594 
L 413.701719 296.478594 
z
" style="fill: #d62728; opacity: 0.8"/>
    </g>
    <g id="text_20">
     <!-- Accuracy -->
     <g transform="translate(438.901719 302.778594) scale(0.09 -0.09)">
      <defs>
       <path id="DejaVuSerif-41" d="M 1281 1691 
L 2994 1691 
L 2138 3909 
L 1281 1691 
z
M -38 0 
L -38 331 
L 372 331 
L 2034 4666 
L 2559 4666 
L 4225 331 
L 4684 331 
L 4684 0 
L 2988 0 
L 2988 331 
L 3506 331 
L 3116 1356 
L 1153 1356 
L 763 331 
L 1275 331 
L 1275 0 
L -38 0 
z
" transform="scale(0.015625)"/>
      </defs>
      <use xlink:href="#DejaVuSerif-41"/>
      <use xlink:href="#DejaVuSerif-63" transform="translate(72.216797 0)"/>
      <use xlink:href="#DejaVuSerif-63" transform="translate(128.222656 0)"/>
      <use xlink:href="#DejaVuSerif-75" transform="translate(184.228516 0)"/>
      <use xlink:href="#DejaVuSerif-72" transform="translate(248.632812 0)"/>
      <use xlink:href="#DejaVuSerif-61" transform="translate(296.435547 0)"/>
      <use xlink:href="#DejaVuSerif-63" transform="translate(356.054688 0)"/>
      <use xlink:href="#DejaVuSerif-79" transform="translate(412.060547 0)"/>
     </g>
    </g>
   </g>
  </g>
 </g>
 <defs>
  <clipPath id="p70535a7d8d">
   <rect x="42.190938" y="21.558281" width="446.98" height="291.32"/>
  </clipPath>
 </defs>
</svg>
