<?xml version="1.0" encoding="utf-8" standalone="no"?>
<!DOCTYPE svg PUBLIC "-//W3C//DTD SVG 1.1//EN"
  "http://www.w3.org/Graphics/SVG/1.1/DTD/svg11.dtd">
<svg xmlns:xlink="http://www.w3.org/1999/xlink" width="647.570937pt" height="312.328437pt" viewBox="0 0 647.570937 312.328437" xmlns="http://www.w3.org/2000/svg" version="1.1">
 <metadata>
  <rdf:RDF xmlns:dc="http://purl.org/dc/elements/1.1/" xmlns:cc="http://creativecommons.org/ns#" xmlns:rdf="http://www.w3.org/1999/02/22-rdf-syntax-ns#">
   <cc:Work>
    <dc:type rdf:resource="http://purl.org/dc/dcmitype/StillImage"/>
    <dc:date>2026-05-27T12:10:00.935736</dc:date>
    <dc:format>image/svg+xml</dc:format>
    <dc:creator>
     <cc:Agent>
      <dc:title>Matplotlib v3.10.9, https://matplotlib.org/</dc:title>
     </cc:Agent>
    </dc:creator>
   </cc:Work>
  </rdf:RDF>
 </metadata>
 <defs>
  <style type="text/css">*{stroke-linejoin: round; stroke-linecap: butt}</style>
 </defs>
 <g id="figure_1">
  <g id="patch_1">
   <path d="M 0 312.328437 
L 647.570937 312.328437 
L 647.570937 0 
L 0 0 
z
" style="fill: #ffffff"/>
  </g>
  <g id="axes_1">
   <g id="patch_2">
    <path d="M 42.190938 275.74 
L 314.110937 275.74 
L 314.110937 57.66 
L 42.190938 57.66 
z
" style="fill: #ffffff"/>
   </g>
   <g id="FillBetweenPolyCollection_1">
    <defs>
     <path id="m7706823097" d="M 54.550938 -36.588438 
L 54.550938 -56.651798 
L 79.270938 -56.54795 
L 128.710937 -91.41998 
L 202.870937 -130.570533 
L 301.750937 -174.498076 
L 301.750937 -36.588438 
L 301.750937 -36.588438 
L 202.870937 -36.588438 
L 128.710937 -36.588438 
L 79.270938 -36.588438 
L 54.550938 -36.588438 
z
" style="stroke: #1a73e8; stroke-opacity: 0.08"/>
    </defs>
    <g clip-path="url(#pd3544f8744)">
     <use xlink:href="#m7706823097" x="0" y="312.328437" style="fill: #1a73e8; fill-opacity: 0.08; stroke: #1a73e8; stroke-opacity: 0.08"/>
    </g>
   </g>
   <g id="matplotlib.axis_1">
    <g id="xtick_1">
     <g id="line2d_1">
      <path d="M 54.550938 275.74 
L 54.550938 57.66 
" clip-path="url(#pd3544f8744)" style="fill: none; stroke-dasharray: 2.96,1.28; stroke-dashoffset: 0; stroke: #b0b0b0; stroke-opacity: 0.3; stroke-width: 0.8"/>
     </g>
     <g id="line2d_2">
      <defs>
       <path id="m998e97c4c2" d="M 0 0 
L 0 3.5 
" style="stroke: #000000; stroke-width: 0.8"/>
      </defs>
      <g>
       <use xlink:href="#m998e97c4c2" x="54.550938" y="275.74" style="stroke: #000000; stroke-width: 0.8"/>
      </g>
     </g>
     <g id="text_1">
      <!-- 0.0 -->
      <g transform="translate(47.394531 289.578594) scale(0.09 -0.09)">
       <defs>
        <path id="DejaVuSerif-30" d="M 2034 219 
Q 2513 219 2750 744 
Q 2988 1269 2988 2328 
Q 2988 3391 2750 3916 
Q 2513 4441 2034 4441 
Q 1556 4441 1318 3916 
Q 1081 3391 1081 2328 
Q 1081 1269 1318 744 
Q 1556 219 2034 219 
z
M 2034 -91 
Q 1275 -91 848 546 
Q 422 1184 422 2328 
Q 422 3475 848 4112 
Q 1275 4750 2034 4750 
Q 2797 4750 3222 4112 
Q 3647 3475 3647 2328 
Q 3647 1184 3222 546 
Q 2797 -91 2034 -91 
z
" transform="scale(0.015625)"/>
        <path id="DejaVuSerif-2e" d="M 603 325 
Q 603 500 722 622 
Q 841 744 1019 744 
Q 1191 744 1312 622 
Q 1434 500 1434 325 
Q 1434 153 1312 31 
Q 1191 -91 1019 -91 
Q 841 -91 722 29 
Q 603 150 603 325 
z
" transform="scale(0.015625)"/>
       </defs>
       <use xlink:href="#DejaVuSerif-30"/>
       <use xlink:href="#DejaVuSerif-2e" transform="translate(63.623047 0)"/>
       <use xlink:href="#DejaVuSerif-30" transform="translate(95.410156 0)"/>
      </g>
     </g>
    </g>
    <g id="xtick_2">
     <g id="line2d_3">
      <path d="M 103.990937 275.74 
L 103.990937 57.66 
" clip-path="url(#pd3544f8744)" style="fill: none; stroke-dasharray: 2.96,1.28; stroke-dashoffset: 0; stroke: #b0b0b0; stroke-opacity: 0.3; stroke-width: 0.8"/>
     </g>
     <g id="line2d_4">
      <g>
       <use xlink:href="#m998e97c4c2" x="103.990937" y="275.74" style="stroke: #000000; stroke-width: 0.8"/>
      </g>
     </g>
     <g id="text_2">
      <!-- 0.1 -->
      <g transform="translate(96.834531 289.578594) scale(0.09 -0.09)">
       <defs>
        <path id="DejaVuSerif-31" d="M 909 0 
L 909 331 
L 1722 331 
L 1722 4213 
L 781 3603 
L 781 4013 
L 1919 4750 
L 2350 4750 
L 2350 331 
L 3163 331 
L 3163 0 
L 909 0 
z
" transform="scale(0.015625)"/>
       </defs>
       <use xlink:href="#DejaVuSerif-30"/>
       <use xlink:href="#DejaVuSerif-2e" transform="translate(63.623047 0)"/>
       <use xlink:href="#DejaVuSerif-31" transform="translate(95.410156 0)"/>
      </g>
     </g>
    </g>
    <g id="xtick_3">
     <g id="line2d_5">
      <path d="M 153.430937 275.74 
L 153.430937 57.66 
" clip-path="url(#pd3544f8744)" style="fill: none; stroke-dasharray: 2.96,1.28; stroke-dashoffset: 0; stroke: #b0b0b0; stroke-opacity: 0.3; stroke-width: 0.8"/>
     </g>
     <g id="line2d_6">
      <g>
       <use xlink:href="#m998e97c4c2" x="153.430937" y="275.74" style="stroke: #000000; stroke-width: 0.8"/>
      </g>
     </g>
     <g id="text_3">
      <!-- 0.2 -->
      <g transform="translate(146.274531 289.578594) scale(0.09 -0.09)">
       <defs>
        <path id="DejaVuSerif-32" d="M 819 3553 
L 469 3553 
L 469 4384 
Q 803 4563 1142 4656 
Q 1481 4750 1806 4750 
Q 2534 4750 2956 4397 
Q 3378 4044 3378 3438 
Q 3378 2753 2422 1800 
Q 2347 1728 2309 1691 
L 1131 513 
L 3078 513 
L 3078 1088 
L 3444 1088 
L 3444 0 
L 434 0 
L 434 341 
L 1850 1753 
Q 2319 2222 2519 2614 
Q 2719 3006 2719 3438 
Q 2719 3909 2473 4175 
Q 2228 4441 1797 4441 
Q 1350 4441 1106 4219 
Q 863 3997 819 3553 
z
" transform="scale(0.015625)"/>
       </defs>
       <use xlink:href="#DejaVuSerif-30"/>
       <use xlink:href="#DejaVuSerif-2e" transform="translate(63.623047 0)"/>
       <use xlink:href="#DejaVuSerif-32" transform="translate(95.410156 0)"/>
      </g>
     </g>
    </g>
    <g id="xtick_4">
     <g id="line2d_7">
      <path d="M 202.870937 275.74 
L 202.870937 57.66 
" clip-path="url(#pd3544f8744)" style="fill: none; stroke-dasharray: 2.96,1.28; stroke-dashoffset: 0; stroke: #b0b0b0; stroke-opacity: 0.3; stroke-width: 0.8"/>
     </g>
     <g id="line2d_8">
      <g>
       <use xlink:href="#m998e97c4c2" x="202.870937" y="275.74" style="stroke: #000000; stroke-width: 0.8"/>
      </g>
     </g>
     <g id="text_4">
      <!-- 0.3 -->
      <g transform="translate(195.714531 289.578594) scale(0.09 -0.09)">
       <defs>
        <path id="DejaVuSerif-33" d="M 622 4469 
Q 988 4606 1323 4678 
Q 1659 4750 1953 4750 
Q 2638 4750 3022 4454 
Q 3406 4159 3406 3634 
Q 3406 3213 3140 2930 
Q 2875 2647 2388 2547 
Q 2963 2466 3280 2130 
Q 3597 1794 3597 1259 
Q 3597 606 3158 257 
Q 2719 -91 1894 -91 
Q 1528 -91 1179 -12 
Q 831 66 488 225 
L 488 1131 
L 838 1131 
Q 869 681 1141 450 
Q 1413 219 1906 219 
Q 2384 219 2661 495 
Q 2938 772 2938 1253 
Q 2938 1803 2653 2086 
Q 2369 2369 1819 2369 
L 1522 2369 
L 1522 2688 
L 1678 2688 
Q 2225 2688 2498 2914 
Q 2772 3141 2772 3597 
Q 2772 4006 2547 4223 
Q 2322 4441 1900 4441 
Q 1478 4441 1245 4241 
Q 1013 4041 972 3647 
L 622 3647 
L 622 4469 
z
" transform="scale(0.015625)"/>
       </defs>
       <use xlink:href="#DejaVuSerif-30"/>
       <use xlink:href="#DejaVuSerif-2e" transform="translate(63.623047 0)"/>
       <use xlink:href="#DejaVuSerif-33" transform="translate(95.410156 0)"/>
      </g>
     </g>
    </g>
    <g id="xtick_5">
     <g id="line2d_9">
      <path d="M 252.310937 275.74 
L 252.310937 57.66 
" clip-path="url(#pd3544f8744)" style="fill: none; stroke-dasharray: 2.96,1.28; stroke-dashoffset: 0; stroke: #b0b0b0; stroke-opacity: 0.3; stroke-width: 0.8"/>
     </g>
     <g id="line2d_10">
      <g>
       <use xlink:href="#m998e97c4c2" x="252.310937" y="275.74" style="stroke: #000000; stroke-width: 0.8"/>
      </g>
     </g>
     <g id="text_5">
      <!-- 0.4 -->
      <g transform="translate(245.154531 289.578594) scale(0.09 -0.09)">
       <defs>
        <path id="DejaVuSerif-34" d="M 2234 1581 
L 2234 4063 
L 641 1581 
L 2234 1581 
z
M 3609 0 
L 1484 0 
L 1484 331 
L 2234 331 
L 2234 1247 
L 197 1247 
L 197 1588 
L 2241 4750 
L 2859 4750 
L 2859 1581 
L 3750 1581 
L 3750 1247 
L 2859 1247 
L 2859 331 
L 3609 331 
L 3609 0 
z
" transform="scale(0.015625)"/>
       </defs>
       <use xlink:href="#DejaVuSerif-30"/>
       <use xlink:href="#DejaVuSerif-2e" transform="translate(63.623047 0)"/>
       <use xlink:href="#DejaVuSerif-34" transform="translate(95.410156 0)"/>
      </g>
     </g>
    </g>
    <g id="xtick_6">
     <g id="line2d_11">
      <path d="M 301.750937 275.74 
L 301.750937 57.66 
" clip-path="url(#pd3544f8744)" style="fill: none; stroke-dasharray: 2.96,1.28; stroke-dashoffset: 0; stroke: #b0b0b0; stroke-opacity: 0.3; stroke-width: 0.8"/>
     </g>
     <g id="line2d_12">
      <g>
       <use xlink:href="#m998e97c4c2" x="301.750937" y="275.74" style="stroke: #000000; stroke-width: 0.8"/>
      </g>
     </g>
     <g id="text_6">
      <!-- 0.5 -->
      <g transform="translate(294.594531 289.578594) scale(0.09 -0.09)">
       <defs>
        <path id="DejaVuSerif-35" d="M 3219 4666 
L 3219 4153 
L 1081 4153 
L 1081 2816 
Q 1244 2928 1461 2984 
Q 1678 3041 1947 3041 
Q 2703 3041 3140 2622 
Q 3578 2203 3578 1478 
Q 3578 738 3136 323 
Q 2694 -91 1894 -91 
Q 1572 -91 1234 -12 
Q 897 66 544 225 
L 544 1131 
L 897 1131 
Q 925 688 1179 453 
Q 1434 219 1894 219 
Q 2388 219 2653 544 
Q 2919 869 2919 1478 
Q 2919 2084 2655 2407 
Q 2391 2731 1894 2731 
Q 1613 2731 1398 2631 
Q 1184 2531 1019 2322 
L 750 2322 
L 750 4666 
L 3219 4666 
z
" transform="scale(0.015625)"/>
       </defs>
       <use xlink:href="#DejaVuSerif-30"/>
       <use xlink:href="#DejaVuSerif-2e" transform="translate(63.623047 0)"/>
       <use xlink:href="#DejaVuSerif-35" transform="translate(95.410156 0)"/>
      </g>
     </g>
    </g>
    <g id="text_7">
     <!-- Noise Level (fraction) -->
     <g transform="translate(123.037656 303.04875) scale(0.1 -0.1)">
      <defs>
       <path id="DejaVuSerif-4e" d="M 313 0 
L 313 331 
L 941 331 
L 941 4331 
L 313 4331 
L 313 4666 
L 1509 4666 
L 4306 984 
L 4306 4331 
L 3681 4331 
L 3681 4666 
L 5319 4666 
L 5319 4331 
L 4691 4331 
L 4691 -91 
L 4313 -91 
L 1325 3841 
L 1325 331 
L 1953 331 
L 1953 0 
L 313 0 
z
" transform="scale(0.015625)"/>
       <path id="DejaVuSerif-6f" d="M 1925 219 
Q 2388 219 2623 584 
Q 2859 950 2859 1663 
Q 2859 2375 2623 2739 
Q 2388 3103 1925 3103 
Q 1463 3103 1227 2739 
Q 991 2375 991 1663 
Q 991 950 1228 584 
Q 1466 219 1925 219 
z
M 1925 -91 
Q 1200 -91 759 389 
Q 319 869 319 1663 
Q 319 2456 758 2934 
Q 1197 3413 1925 3413 
Q 2653 3413 3092 2934 
Q 3531 2456 3531 1663 
Q 3531 869 3092 389 
Q 2653 -91 1925 -91 
z
" transform="scale(0.015625)"/>
       <path id="DejaVuSerif-69" d="M 622 4353 
Q 622 4497 726 4603 
Q 831 4709 978 4709 
Q 1122 4709 1226 4603 
Q 1331 4497 1331 4353 
Q 1331 4206 1228 4103 
Q 1125 4000 978 4000 
Q 831 4000 726 4103 
Q 622 4206 622 4353 
z
M 1356 331 
L 1900 331 
L 1900 0 
L 231 0 
L 231 331 
L 781 331 
L 781 2988 
L 231 2988 
L 231 3322 
L 1356 3322 
L 1356 331 
z
" transform="scale(0.015625)"/>
       <path id="DejaVuSerif-73" d="M 359 184 
L 359 959 
L 691 959 
Q 703 588 923 403 
Q 1144 219 1575 219 
Q 1963 219 2166 364 
Q 2369 509 2369 788 
Q 2369 1006 2220 1140 
Q 2072 1275 1594 1428 
L 1178 1569 
Q 750 1706 558 1912 
Q 366 2119 366 2438 
Q 366 2894 700 3153 
Q 1034 3413 1625 3413 
Q 1888 3413 2178 3344 
Q 2469 3275 2778 3144 
L 2778 2419 
L 2447 2419 
Q 2434 2741 2221 2922 
Q 2009 3103 1644 3103 
Q 1281 3103 1095 2975 
Q 909 2847 909 2591 
Q 909 2381 1050 2254 
Q 1191 2128 1613 1997 
L 2069 1856 
Q 2541 1709 2748 1489 
Q 2956 1269 2956 922 
Q 2956 450 2595 179 
Q 2234 -91 1600 -91 
Q 1278 -91 972 -22 
Q 666 47 359 184 
z
" transform="scale(0.015625)"/>
       <path id="DejaVuSerif-65" d="M 3469 1600 
L 991 1600 
L 991 1575 
Q 991 903 1244 561 
Q 1497 219 1991 219 
Q 2369 219 2611 417 
Q 2853 616 2950 1006 
L 3413 1006 
Q 3275 459 2904 184 
Q 2534 -91 1931 -91 
Q 1203 -91 761 389 
Q 319 869 319 1663 
Q 319 2450 753 2931 
Q 1188 3413 1894 3413 
Q 2647 3413 3050 2948 
Q 3453 2484 3469 1600 
z
M 2791 1931 
Q 2772 2513 2545 2808 
Q 2319 3103 1894 3103 
Q 1497 3103 1269 2806 
Q 1041 2509 991 1931 
L 2791 1931 
z
" transform="scale(0.015625)"/>
       <path id="DejaVuSerif-20" transform="scale(0.015625)"/>
       <path id="DejaVuSerif-4c" d="M 353 0 
L 353 331 
L 947 331 
L 947 4331 
L 353 4331 
L 353 4666 
L 2175 4666 
L 2175 4331 
L 1581 4331 
L 1581 384 
L 3713 384 
L 3713 1166 
L 4097 1166 
L 4097 0 
L 353 0 
z
" transform="scale(0.015625)"/>
       <path id="DejaVuSerif-76" d="M 1581 0 
L 359 2988 
L -19 2988 
L -19 3322 
L 1509 3322 
L 1509 2988 
L 978 2988 
L 1913 703 
L 2847 2988 
L 2350 2988 
L 2350 3322 
L 3597 3322 
L 3597 2988 
L 3225 2988 
L 2003 0 
L 1581 0 
z
" transform="scale(0.015625)"/>
       <path id="DejaVuSerif-6c" d="M 1313 331 
L 1856 331 
L 1856 0 
L 184 0 
L 184 331 
L 738 331 
L 738 4531 
L 184 4531 
L 184 4863 
L 1313 4863 
L 1313 331 
z
" transform="scale(0.015625)"/>
       <path id="DejaVuSerif-28" d="M 2041 -997 
Q 1281 -656 893 83 
Q 506 822 506 1931 
Q 506 3044 893 3783 
Q 1281 4522 2041 4863 
L 2041 4556 
Q 1559 4225 1350 3623 
Q 1141 3022 1141 1931 
Q 1141 844 1350 242 
Q 1559 -359 2041 -691 
L 2041 -997 
z
" transform="scale(0.015625)"/>
       <path id="DejaVuSerif-66" d="M 2753 4078 
L 2450 4078 
Q 2447 4313 2317 4434 
Q 2188 4556 1941 4556 
Q 1619 4556 1487 4379 
Q 1356 4203 1356 3750 
L 1356 3322 
L 2284 3322 
L 2284 2988 
L 1356 2988 
L 1356 331 
L 2094 331 
L 2094 0 
L 231 0 
L 231 331 
L 781 331 
L 781 2988 
L 231 2988 
L 231 3322 
L 781 3322 
L 781 3738 
Q 781 4294 1070 4578 
Q 1359 4863 1919 4863 
Q 2128 4863 2337 4825 
Q 2547 4788 2753 4709 
L 2753 4078 
z
" transform="scale(0.015625)"/>
       <path id="DejaVuSerif-72" d="M 3059 3328 
L 3059 2497 
L 2728 2497 
Q 2713 2744 2591 2866 
Q 2469 2988 2234 2988 
Q 1809 2988 1582 2694 
Q 1356 2400 1356 1850 
L 1356 331 
L 2022 331 
L 2022 0 
L 263 0 
L 263 331 
L 781 331 
L 781 2994 
L 231 2994 
L 231 3322 
L 1356 3322 
L 1356 2731 
Q 1525 3078 1790 3245 
Q 2056 3413 2438 3413 
Q 2578 3413 2733 3391 
Q 2888 3369 3059 3328 
z
" transform="scale(0.015625)"/>
       <path id="DejaVuSerif-61" d="M 2547 1044 
L 2547 1747 
L 1806 1747 
Q 1378 1747 1168 1562 
Q 959 1378 959 997 
Q 959 650 1171 447 
Q 1384 244 1747 244 
Q 2106 244 2326 466 
Q 2547 688 2547 1044 
z
M 3122 2075 
L 3122 331 
L 3634 331 
L 3634 0 
L 2547 0 
L 2547 359 
Q 2356 128 2106 18 
Q 1856 -91 1522 -91 
Q 969 -91 644 203 
Q 319 497 319 997 
Q 319 1513 691 1797 
Q 1063 2081 1741 2081 
L 2547 2081 
L 2547 2309 
Q 2547 2688 2317 2895 
Q 2088 3103 1672 3103 
Q 1328 3103 1125 2947 
Q 922 2791 872 2484 
L 575 2484 
L 575 3156 
Q 875 3284 1158 3348 
Q 1441 3413 1709 3413 
Q 2400 3413 2761 3070 
Q 3122 2728 3122 2075 
z
" transform="scale(0.015625)"/>
       <path id="DejaVuSerif-63" d="M 3291 997 
Q 3169 466 2822 187 
Q 2475 -91 1925 -91 
Q 1200 -91 759 389 
Q 319 869 319 1663 
Q 319 2459 759 2936 
Q 1200 3413 1925 3413 
Q 2241 3413 2553 3339 
Q 2866 3266 3181 3116 
L 3181 2266 
L 2847 2266 
Q 2781 2703 2561 2903 
Q 2341 3103 1931 3103 
Q 1466 3103 1228 2742 
Q 991 2381 991 1663 
Q 991 944 1227 581 
Q 1463 219 1931 219 
Q 2303 219 2525 412 
Q 2747 606 2828 997 
L 3291 997 
z
" transform="scale(0.015625)"/>
       <path id="DejaVuSerif-74" d="M 691 2988 
L 184 2988 
L 184 3322 
L 691 3322 
L 691 4353 
L 1269 4353 
L 1269 3322 
L 2350 3322 
L 2350 2988 
L 1269 2988 
L 1269 878 
Q 1269 456 1350 337 
Q 1431 219 1650 219 
Q 1875 219 1978 351 
Q 2081 484 2088 781 
L 2522 781 
Q 2497 328 2275 118 
Q 2053 -91 1600 -91 
Q 1103 -91 897 129 
Q 691 350 691 878 
L 691 2988 
z
" transform="scale(0.015625)"/>
       <path id="DejaVuSerif-6e" d="M 263 0 
L 263 331 
L 781 331 
L 781 2988 
L 231 2988 
L 231 3322 
L 1356 3322 
L 1356 2731 
Q 1516 3069 1770 3241 
Q 2025 3413 2363 3413 
Q 2913 3413 3172 3097 
Q 3431 2781 3431 2113 
L 3431 331 
L 3944 331 
L 3944 0 
L 2356 0 
L 2356 331 
L 2853 331 
L 2853 1931 
Q 2853 2541 2703 2767 
Q 2553 2994 2175 2994 
Q 1775 2994 1565 2701 
Q 1356 2409 1356 1850 
L 1356 331 
L 1856 331 
L 1856 0 
L 263 0 
z
" transform="scale(0.015625)"/>
       <path id="DejaVuSerif-29" d="M 453 -997 
L 453 -691 
Q 934 -359 1145 242 
Q 1356 844 1356 1931 
Q 1356 3022 1145 3623 
Q 934 4225 453 4556 
L 453 4863 
Q 1216 4522 1603 3783 
Q 1991 3044 1991 1931 
Q 1991 822 1603 83 
Q 1216 -656 453 -997 
z
" transform="scale(0.015625)"/>
      </defs>
      <use xlink:href="#DejaVuSerif-4e"/>
      <use xlink:href="#DejaVuSerif-6f" transform="translate(87.5 0)"/>
      <use xlink:href="#DejaVuSerif-69" transform="translate(147.705078 0)"/>
      <use xlink:href="#DejaVuSerif-73" transform="translate(179.6875 0)"/>
      <use xlink:href="#DejaVuSerif-65" transform="translate(231.005859 0)"/>
      <use xlink:href="#DejaVuSerif-20" transform="translate(290.185547 0)"/>
      <use xlink:href="#DejaVuSerif-4c" transform="translate(321.972656 0)"/>
      <use xlink:href="#DejaVuSerif-65" transform="translate(388.378906 0)"/>
      <use xlink:href="#DejaVuSerif-76" transform="translate(447.558594 0)"/>
      <use xlink:href="#DejaVuSerif-65" transform="translate(504.052734 0)"/>
      <use xlink:href="#DejaVuSerif-6c" transform="translate(563.232422 0)"/>
      <use xlink:href="#DejaVuSerif-20" transform="translate(595.214844 0)"/>
      <use xlink:href="#DejaVuSerif-28" transform="translate(627.001953 0)"/>
      <use xlink:href="#DejaVuSerif-66" transform="translate(666.015625 0)"/>
      <use xlink:href="#DejaVuSerif-72" transform="translate(703.027344 0)"/>
      <use xlink:href="#DejaVuSerif-61" transform="translate(750.830078 0)"/>
      <use xlink:href="#DejaVuSerif-63" transform="translate(810.449219 0)"/>
      <use xlink:href="#DejaVuSerif-74" transform="translate(866.455078 0)"/>
      <use xlink:href="#DejaVuSerif-69" transform="translate(906.640625 0)"/>
      <use xlink:href="#DejaVuSerif-6f" transform="translate(938.623047 0)"/>
      <use xlink:href="#DejaVuSerif-6e" transform="translate(998.828125 0)"/>
      <use xlink:href="#DejaVuSerif-29" transform="translate(1063.232422 0)"/>
     </g>
    </g>
   </g>
   <g id="matplotlib.axis_2">
    <g id="ytick_1">
     <g id="line2d_13">
      <path d="M 42.190938 275.74 
L 314.110937 275.74 
" clip-path="url(#pd3544f8744)" style="fill: none; stroke-dasharray: 2.96,1.28; stroke-dashoffset: 0; stroke: #b0b0b0; stroke-opacity: 0.3; stroke-width: 0.8"/>
     </g>
     <g id="line2d_14">
      <defs>
       <path id="mb889c05182" d="M 0 0 
L -3.5 0 
" style="stroke: #000000; stroke-width: 0.8"/>
      </defs>
      <g>
       <use xlink:href="#mb889c05182" x="42.190938" y="275.74" style="stroke: #000000; stroke-width: 0.8"/>
      </g>
     </g>
     <g id="text_8">
      <!-- 0.0 -->
      <g transform="translate(20.878125 279.159297) scale(0.09 -0.09)">
       <use xlink:href="#DejaVuSerif-30"/>
       <use xlink:href="#DejaVuSerif-2e" transform="translate(63.623047 0)"/>
       <use xlink:href="#DejaVuSerif-30" transform="translate(95.410156 0)"/>
      </g>
     </g>
    </g>
    <g id="ytick_2">
     <g id="line2d_15">
      <path d="M 42.190938 234.200952 
L 314.110937 234.200952 
" clip-path="url(#pd3544f8744)" style="fill: none; stroke-dasharray: 2.96,1.28; stroke-dashoffset: 0; stroke: #b0b0b0; stroke-opacity: 0.3; stroke-width: 0.8"/>
     </g>
     <g id="line2d_16">
      <g>
       <use xlink:href="#mb889c05182" x="42.190938" y="234.200952" style="stroke: #000000; stroke-width: 0.8"/>
      </g>
     </g>
     <g id="text_9">
      <!-- 0.2 -->
      <g transform="translate(20.878125 237.620249) scale(0.09 -0.09)">
       <use xlink:href="#DejaVuSerif-30"/>
       <use xlink:href="#DejaVuSerif-2e" transform="translate(63.623047 0)"/>
       <use xlink:href="#DejaVuSerif-32" transform="translate(95.410156 0)"/>
      </g>
     </g>
    </g>
    <g id="ytick_3">
     <g id="line2d_17">
      <path d="M 42.190938 192.661905 
L 314.110937 192.661905 
" clip-path="url(#pd3544f8744)" style="fill: none; stroke-dasharray: 2.96,1.28; stroke-dashoffset: 0; stroke: #b0b0b0; stroke-opacity: 0.3; stroke-width: 0.8"/>
     </g>
     <g id="line2d_18">
      <g>
       <use xlink:href="#mb889c05182" x="42.190938" y="192.661905" style="stroke: #000000; stroke-width: 0.8"/>
      </g>
     </g>
     <g id="text_10">
      <!-- 0.4 -->
      <g transform="translate(20.878125 196.081202) scale(0.09 -0.09)">
       <use xlink:href="#DejaVuSerif-30"/>
       <use xlink:href="#DejaVuSerif-2e" transform="translate(63.623047 0)"/>
       <use xlink:href="#DejaVuSerif-34" transform="translate(95.410156 0)"/>
      </g>
     </g>
    </g>
    <g id="ytick_4">
     <g id="line2d_19">
      <path d="M 42.190938 151.122857 
L 314.110937 151.122857 
" clip-path="url(#pd3544f8744)" style="fill: none; stroke-dasharray: 2.96,1.28; stroke-dashoffset: 0; stroke: #b0b0b0; stroke-opacity: 0.3; stroke-width: 0.8"/>
     </g>
     <g id="line2d_20">
      <g>
       <use xlink:href="#mb889c05182" x="42.190938" y="151.122857" style="stroke: #000000; stroke-width: 0.8"/>
      </g>
     </g>
     <g id="text_11">
      <!-- 0.6 -->
      <g transform="translate(20.878125 154.542154) scale(0.09 -0.09)">
       <defs>
        <path id="DejaVuSerif-36" d="M 2094 219 
Q 2534 219 2771 542 
Q 3009 866 3009 1472 
Q 3009 2078 2771 2401 
Q 2534 2725 2094 2725 
Q 1647 2725 1412 2412 
Q 1178 2100 1178 1509 
Q 1178 888 1415 553 
Q 1653 219 2094 219 
z
M 1075 2569 
Q 1288 2803 1556 2918 
Q 1825 3034 2163 3034 
Q 2859 3034 3264 2615 
Q 3669 2197 3669 1472 
Q 3669 763 3233 336 
Q 2797 -91 2069 -91 
Q 1278 -91 853 498 
Q 428 1088 428 2181 
Q 428 3406 931 4078 
Q 1434 4750 2350 4750 
Q 2597 4750 2869 4703 
Q 3141 4656 3425 4563 
L 3425 3794 
L 3072 3794 
Q 3034 4109 2831 4275 
Q 2628 4441 2284 4441 
Q 1678 4441 1381 3981 
Q 1084 3522 1075 2569 
z
" transform="scale(0.015625)"/>
       </defs>
       <use xlink:href="#DejaVuSerif-30"/>
       <use xlink:href="#DejaVuSerif-2e" transform="translate(63.623047 0)"/>
       <use xlink:href="#DejaVuSerif-36" transform="translate(95.410156 0)"/>
      </g>
     </g>
    </g>
    <g id="ytick_5">
     <g id="line2d_21">
      <path d="M 42.190938 109.58381 
L 314.110937 109.58381 
" clip-path="url(#pd3544f8744)" style="fill: none; stroke-dasharray: 2.96,1.28; stroke-dashoffset: 0; stroke: #b0b0b0; stroke-opacity: 0.3; stroke-width: 0.8"/>
     </g>
     <g id="line2d_22">
      <g>
       <use xlink:href="#mb889c05182" x="42.190938" y="109.58381" style="stroke: #000000; stroke-width: 0.8"/>
      </g>
     </g>
     <g id="text_12">
      <!-- 0.8 -->
      <g transform="translate(20.878125 113.003106) scale(0.09 -0.09)">
       <defs>
        <path id="DejaVuSerif-38" d="M 2981 1275 
Q 2981 1775 2732 2051 
Q 2484 2328 2034 2328 
Q 1584 2328 1336 2051 
Q 1088 1775 1088 1275 
Q 1088 772 1336 495 
Q 1584 219 2034 219 
Q 2484 219 2732 495 
Q 2981 772 2981 1275 
z
M 2853 3541 
Q 2853 3966 2637 4203 
Q 2422 4441 2034 4441 
Q 1650 4441 1433 4203 
Q 1216 3966 1216 3541 
Q 1216 3113 1433 2875 
Q 1650 2638 2034 2638 
Q 2422 2638 2637 2875 
Q 2853 3113 2853 3541 
z
M 2516 2484 
Q 3047 2413 3344 2092 
Q 3641 1772 3641 1275 
Q 3641 619 3225 264 
Q 2809 -91 2034 -91 
Q 1263 -91 845 264 
Q 428 619 428 1275 
Q 428 1772 725 2092 
Q 1022 2413 1556 2484 
Q 1084 2569 832 2842 
Q 581 3116 581 3541 
Q 581 4103 968 4426 
Q 1356 4750 2034 4750 
Q 2713 4750 3100 4426 
Q 3488 4103 3488 3541 
Q 3488 3116 3236 2842 
Q 2984 2569 2516 2484 
z
" transform="scale(0.015625)"/>
       </defs>
       <use xlink:href="#DejaVuSerif-30"/>
       <use xlink:href="#DejaVuSerif-2e" transform="translate(63.623047 0)"/>
       <use xlink:href="#DejaVuSerif-38" transform="translate(95.410156 0)"/>
      </g>
     </g>
    </g>
    <g id="ytick_6">
     <g id="line2d_23">
      <path d="M 42.190938 68.044762 
L 314.110937 68.044762 
" clip-path="url(#pd3544f8744)" style="fill: none; stroke-dasharray: 2.96,1.28; stroke-dashoffset: 0; stroke: #b0b0b0; stroke-opacity: 0.3; stroke-width: 0.8"/>
     </g>
     <g id="line2d_24">
      <g>
       <use xlink:href="#mb889c05182" x="42.190938" y="68.044762" style="stroke: #000000; stroke-width: 0.8"/>
      </g>
     </g>
     <g id="text_13">
      <!-- 1.0 -->
      <g transform="translate(20.878125 71.464059) scale(0.09 -0.09)">
       <use xlink:href="#DejaVuSerif-31"/>
       <use xlink:href="#DejaVuSerif-2e" transform="translate(63.623047 0)"/>
       <use xlink:href="#DejaVuSerif-30" transform="translate(95.410156 0)"/>
      </g>
     </g>
    </g>
    <g id="text_14">
     <!-- Score -->
     <g transform="translate(14.798438 181.284375) rotate(-90) scale(0.1 -0.1)">
      <defs>
       <path id="DejaVuSerif-53" d="M 594 225 
L 594 1288 
L 953 1284 
Q 969 753 1261 498 
Q 1553 244 2150 244 
Q 2706 244 2998 464 
Q 3291 684 3291 1106 
Q 3291 1444 3114 1625 
Q 2938 1806 2369 1978 
L 1753 2163 
Q 1084 2366 811 2669 
Q 538 2972 538 3500 
Q 538 4094 959 4422 
Q 1381 4750 2144 4750 
Q 2469 4750 2856 4679 
Q 3244 4609 3681 4475 
L 3681 3481 
L 3328 3481 
Q 3275 3975 2998 4195 
Q 2722 4416 2156 4416 
Q 1663 4416 1405 4214 
Q 1147 4013 1147 3628 
Q 1147 3294 1340 3103 
Q 1534 2913 2163 2725 
L 2741 2553 
Q 3375 2363 3645 2067 
Q 3916 1772 3916 1275 
Q 3916 597 3481 253 
Q 3047 -91 2188 -91 
Q 1803 -91 1404 -12 
Q 1006 66 594 225 
z
" transform="scale(0.015625)"/>
      </defs>
      <use xlink:href="#DejaVuSerif-53"/>
      <use xlink:href="#DejaVuSerif-63" transform="translate(68.505859 0)"/>
      <use xlink:href="#DejaVuSerif-6f" transform="translate(124.511719 0)"/>
      <use xlink:href="#DejaVuSerif-72" transform="translate(184.716797 0)"/>
      <use xlink:href="#DejaVuSerif-65" transform="translate(232.519531 0)"/>
     </g>
    </g>
   </g>
   <g id="line2d_25">
    <path d="M 54.550938 255.67664 
L 79.270938 255.780488 
L 128.710937 220.908457 
L 202.870937 181.757905 
L 301.750937 137.830362 
" clip-path="url(#pd3544f8744)" style="fill: none; stroke: #1a73e8; stroke-width: 2; stroke-linecap: square"/>
    <defs>
     <path id="mab0875f6f8" d="M 0 3 
C 0.795609 3 1.55874 2.683901 2.12132 2.12132 
C 2.683901 1.55874 3 0.795609 3 0 
C 3 -0.795609 2.683901 -1.55874 2.12132 -2.12132 
C 1.55874 -2.683901 0.795609 -3 0 -3 
C -0.795609 -3 -1.55874 -2.683901 -2.12132 -2.12132 
C -2.683901 -1.55874 -3 -0.795609 -3 0 
C -3 0.795609 -2.683901 1.55874 -2.12132 2.12132 
C -1.55874 2.683901 -0.795609 3 0 3 
z
" style="stroke: #1a73e8"/>
    </defs>
    <g clip-path="url(#pd3544f8744)">
     <use xlink:href="#mab0875f6f8" x="54.550938" y="255.67664" style="fill: #1a73e8; stroke: #1a73e8"/>
     <use xlink:href="#mab0875f6f8" x="79.270938" y="255.780488" style="fill: #1a73e8; stroke: #1a73e8"/>
     <use xlink:href="#mab0875f6f8" x="128.710937" y="220.908457" style="fill: #1a73e8; stroke: #1a73e8"/>
     <use xlink:href="#mab0875f6f8" x="202.870937" y="181.757905" style="fill: #1a73e8; stroke: #1a73e8"/>
     <use xlink:href="#mab0875f6f8" x="301.750937" y="137.830362" style="fill: #1a73e8; stroke: #1a73e8"/>
    </g>
   </g>
   <g id="line2d_26">
    <path d="M 54.550938 265.168312 
L 79.270938 265.230621 
L 128.710937 243.92109 
L 202.870937 213.80528 
L 301.750937 170.729288 
" clip-path="url(#pd3544f8744)" style="fill: none; stroke-dasharray: 5.55,2.4; stroke-dashoffset: 0; stroke: #e8710a; stroke-width: 1.5"/>
    <defs>
     <path id="md5246c4633" d="M -3 3 
L 3 3 
L 3 -3 
L -3 -3 
z
" style="stroke: #e8710a; stroke-linejoin: miter"/>
    </defs>
    <g clip-path="url(#pd3544f8744)">
     <use xlink:href="#md5246c4633" x="54.550938" y="265.168312" style="fill: #e8710a; stroke: #e8710a; stroke-linejoin: miter"/>
     <use xlink:href="#md5246c4633" x="79.270938" y="265.230621" style="fill: #e8710a; stroke: #e8710a; stroke-linejoin: miter"/>
     <use xlink:href="#md5246c4633" x="128.710937" y="243.92109" style="fill: #e8710a; stroke: #e8710a; stroke-linejoin: miter"/>
     <use xlink:href="#md5246c4633" x="202.870937" y="213.80528" style="fill: #e8710a; stroke: #e8710a; stroke-linejoin: miter"/>
     <use xlink:href="#md5246c4633" x="301.750937" y="170.729288" style="fill: #e8710a; stroke: #e8710a; stroke-linejoin: miter"/>
    </g>
   </g>
   <g id="line2d_27">
    <path d="M 54.550938 79.177227 
L 79.270938 79.177227 
L 128.710937 77.2872 
L 202.870937 80.963406 
L 301.750937 74.877935 
" clip-path="url(#pd3544f8744)" style="fill: none; stroke-dasharray: 9.6,2.4,1.5,2.4; stroke-dashoffset: 0; stroke: #0f9d58; stroke-width: 1.5"/>
    <defs>
     <path id="ma2af82ae25" d="M 0 -3 
L -3 3 
L 3 3 
z
" style="stroke: #0f9d58; stroke-linejoin: miter"/>
    </defs>
    <g clip-path="url(#pd3544f8744)">
     <use xlink:href="#ma2af82ae25" x="54.550938" y="79.177227" style="fill: #0f9d58; stroke: #0f9d58; stroke-linejoin: miter"/>
     <use xlink:href="#ma2af82ae25" x="79.270938" y="79.177227" style="fill: #0f9d58; stroke: #0f9d58; stroke-linejoin: miter"/>
     <use xlink:href="#ma2af82ae25" x="128.710937" y="77.2872" style="fill: #0f9d58; stroke: #0f9d58; stroke-linejoin: miter"/>
     <use xlink:href="#ma2af82ae25" x="202.870937" y="80.963406" style="fill: #0f9d58; stroke: #0f9d58; stroke-linejoin: miter"/>
     <use xlink:href="#ma2af82ae25" x="301.750937" y="74.877935" style="fill: #0f9d58; stroke: #0f9d58; stroke-linejoin: miter"/>
    </g>
   </g>
   <g id="patch_3">
    <path d="M 42.190938 275.74 
L 42.190938 57.66 
" style="fill: none; stroke: #000000; stroke-width: 0.8; stroke-linejoin: miter; stroke-linecap: square"/>
   </g>
   <g id="patch_4">
    <path d="M 42.190938 275.74 
L 314.110937 275.74 
" style="fill: none; stroke: #000000; stroke-width: 0.8; stroke-linejoin: miter; stroke-linecap: square"/>
   </g>
   <g id="text_15">
    <!-- (a) Performance Under Noise -->
    <g transform="translate(96.107266 51.66) scale(0.11 -0.11)">
     <defs>
      <path id="DejaVuSerif-50" d="M 1581 2375 
L 2406 2375 
Q 2872 2375 3115 2626 
Q 3359 2878 3359 3353 
Q 3359 3831 3115 4081 
Q 2872 4331 2406 4331 
L 1581 4331 
L 1581 2375 
z
M 353 0 
L 353 331 
L 947 331 
L 947 4331 
L 353 4331 
L 353 4666 
L 2559 4666 
Q 3259 4666 3668 4311 
Q 4078 3956 4078 3353 
Q 4078 2753 3668 2397 
Q 3259 2041 2559 2041 
L 1581 2041 
L 1581 331 
L 2303 331 
L 2303 0 
L 353 0 
z
" transform="scale(0.015625)"/>
      <path id="DejaVuSerif-6d" d="M 3316 2675 
Q 3481 3041 3739 3227 
Q 3997 3413 4341 3413 
Q 4863 3413 5119 3089 
Q 5375 2766 5375 2113 
L 5375 331 
L 5894 331 
L 5894 0 
L 4300 0 
L 4300 331 
L 4800 331 
L 4800 2047 
Q 4800 2556 4650 2772 
Q 4500 2988 4153 2988 
Q 3769 2988 3567 2697 
Q 3366 2406 3366 1850 
L 3366 331 
L 3866 331 
L 3866 0 
L 2291 0 
L 2291 331 
L 2791 331 
L 2791 2069 
Q 2791 2566 2641 2777 
Q 2491 2988 2144 2988 
Q 1759 2988 1557 2697 
Q 1356 2406 1356 1850 
L 1356 331 
L 1856 331 
L 1856 0 
L 263 0 
L 263 331 
L 781 331 
L 781 2994 
L 231 2994 
L 231 3322 
L 1356 3322 
L 1356 2731 
Q 1516 3063 1762 3238 
Q 2009 3413 2322 3413 
Q 2709 3413 2968 3220 
Q 3228 3028 3316 2675 
z
" transform="scale(0.015625)"/>
      <path id="DejaVuSerif-55" d="M 897 4331 
L 300 4331 
L 300 4666 
L 2125 4666 
L 2125 4331 
L 1528 4331 
L 1528 1919 
Q 1528 1025 1820 672 
Q 2113 319 2828 319 
Q 3544 319 3836 672 
Q 4128 1025 4128 1919 
L 4128 4331 
L 3531 4331 
L 3531 4666 
L 5106 4666 
L 5106 4331 
L 4513 4331 
L 4513 1856 
Q 4513 791 4103 350 
Q 3694 -91 2713 -91 
Q 1731 -91 1314 353 
Q 897 797 897 1856 
L 897 4331 
z
" transform="scale(0.015625)"/>
      <path id="DejaVuSerif-64" d="M 3359 331 
L 3909 331 
L 3909 0 
L 2784 0 
L 2784 519 
Q 2616 206 2355 57 
Q 2094 -91 1709 -91 
Q 1097 -91 708 395 
Q 319 881 319 1663 
Q 319 2444 706 2928 
Q 1094 3413 1709 3413 
Q 2094 3413 2355 3264 
Q 2616 3116 2784 2803 
L 2784 4531 
L 2241 4531 
L 2241 4863 
L 3359 4863 
L 3359 331 
z
M 2784 1497 
L 2784 1825 
Q 2784 2422 2554 2737 
Q 2325 3053 1888 3053 
Q 1444 3053 1217 2703 
Q 991 2353 991 1663 
Q 991 975 1217 622 
Q 1444 269 1888 269 
Q 2325 269 2554 583 
Q 2784 897 2784 1497 
z
" transform="scale(0.015625)"/>
     </defs>
     <use xlink:href="#DejaVuSerif-28"/>
     <use xlink:href="#DejaVuSerif-61" transform="translate(39.013672 0)"/>
     <use xlink:href="#DejaVuSerif-29" transform="translate(98.632812 0)"/>
     <use xlink:href="#DejaVuSerif-20" transform="translate(137.646484 0)"/>
     <use xlink:href="#DejaVuSerif-50" transform="translate(169.433594 0)"/>
     <use xlink:href="#DejaVuSerif-65" transform="translate(232.21875 0)"/>
     <use xlink:href="#DejaVuSerif-72" transform="translate(291.398438 0)"/>
     <use xlink:href="#DejaVuSerif-66" transform="translate(339.201172 0)"/>
     <use xlink:href="#DejaVuSerif-6f" transform="translate(376.212891 0)"/>
     <use xlink:href="#DejaVuSerif-72" transform="translate(436.417969 0)"/>
     <use xlink:href="#DejaVuSerif-6d" transform="translate(484.220703 0)"/>
     <use xlink:href="#DejaVuSerif-61" transform="translate(579.044922 0)"/>
     <use xlink:href="#DejaVuSerif-6e" transform="translate(638.664062 0)"/>
     <use xlink:href="#DejaVuSerif-63" transform="translate(703.068359 0)"/>
     <use xlink:href="#DejaVuSerif-65" transform="translate(759.074219 0)"/>
     <use xlink:href="#DejaVuSerif-20" transform="translate(818.253906 0)"/>
     <use xlink:href="#DejaVuSerif-55" transform="translate(850.041016 0)"/>
     <use xlink:href="#DejaVuSerif-6e" transform="translate(934.318359 0)"/>
     <use xlink:href="#DejaVuSerif-64" transform="translate(998.722656 0)"/>
     <use xlink:href="#DejaVuSerif-65" transform="translate(1062.736328 0)"/>
     <use xlink:href="#DejaVuSerif-72" transform="translate(1121.916016 0)"/>
     <use xlink:href="#DejaVuSerif-20" transform="translate(1169.71875 0)"/>
     <use xlink:href="#DejaVuSerif-4e" transform="translate(1201.505859 0)"/>
     <use xlink:href="#DejaVuSerif-6f" transform="translate(1289.005859 0)"/>
     <use xlink:href="#DejaVuSerif-69" transform="translate(1349.210938 0)"/>
     <use xlink:href="#DejaVuSerif-73" transform="translate(1381.193359 0)"/>
     <use xlink:href="#DejaVuSerif-65" transform="translate(1432.511719 0)"/>
    </g>
   </g>
   <g id="legend_1">
    <g id="patch_5">
     <path d="M 47.790938 185.51375 
L 111.003438 185.51375 
Q 112.603437 185.51375 112.603437 183.91375 
L 112.603437 149.48625 
Q 112.603437 147.88625 111.003438 147.88625 
L 47.790938 147.88625 
Q 46.190938 147.88625 46.190938 149.48625 
L 46.190938 183.91375 
Q 46.190938 185.51375 47.790938 185.51375 
z
" style="fill: #ffffff; opacity: 0.8; stroke: #cccccc; stroke-linejoin: miter"/>
    </g>
    <g id="line2d_28">
     <path d="M 49.390938 154.365 
L 57.390938 154.365 
L 65.390938 154.365 
" style="fill: none; stroke: #1a73e8; stroke-width: 2; stroke-linecap: square"/>
     <g>
      <use xlink:href="#mab0875f6f8" x="57.390938" y="154.365" style="fill: #1a73e8; stroke: #1a73e8"/>
     </g>
    </g>
    <g id="text_16">
     <!-- F1-Score -->
     <g transform="translate(71.790938 157.165) scale(0.08 -0.08)">
      <defs>
       <path id="DejaVuSerif-46" d="M 353 0 
L 353 331 
L 947 331 
L 947 4331 
L 353 4331 
L 353 4666 
L 4172 4666 
L 4172 3628 
L 3788 3628 
L 3788 4281 
L 1581 4281 
L 1581 2719 
L 3175 2719 
L 3175 3303 
L 3559 3303 
L 3559 1753 
L 3175 1753 
L 3175 2338 
L 1581 2338 
L 1581 331 
L 2328 331 
L 2328 0 
L 353 0 
z
" transform="scale(0.015625)"/>
       <path id="DejaVuSerif-2d" d="M 281 1959 
L 1881 1959 
L 1881 1472 
L 281 1472 
L 281 1959 
z
" transform="scale(0.015625)"/>
      </defs>
      <use xlink:href="#DejaVuSerif-46"/>
      <use xlink:href="#DejaVuSerif-31" transform="translate(69.384766 0)"/>
      <use xlink:href="#DejaVuSerif-2d" transform="translate(133.007812 0)"/>
      <use xlink:href="#DejaVuSerif-53" transform="translate(166.796875 0)"/>
      <use xlink:href="#DejaVuSerif-63" transform="translate(235.302734 0)"/>
      <use xlink:href="#DejaVuSerif-6f" transform="translate(291.308594 0)"/>
      <use xlink:href="#DejaVuSerif-72" transform="translate(351.513672 0)"/>
      <use xlink:href="#DejaVuSerif-65" transform="translate(399.316406 0)"/>
     </g>
    </g>
    <g id="line2d_29">
     <path d="M 49.390938 166.1075 
L 57.390938 166.1075 
L 65.390938 166.1075 
" style="fill: none; stroke-dasharray: 5.55,2.4; stroke-dashoffset: 0; stroke: #e8710a; stroke-width: 1.5"/>
     <g>
      <use xlink:href="#md5246c4633" x="57.390938" y="166.1075" style="fill: #e8710a; stroke: #e8710a; stroke-linejoin: miter"/>
     </g>
    </g>
    <g id="text_17">
     <!-- Precision -->
     <g transform="translate(71.790938 168.9075) scale(0.08 -0.08)">
      <use xlink:href="#DejaVuSerif-50"/>
      <use xlink:href="#DejaVuSerif-72" transform="translate(67.285156 0)"/>
      <use xlink:href="#DejaVuSerif-65" transform="translate(115.087891 0)"/>
      <use xlink:href="#DejaVuSerif-63" transform="translate(174.267578 0)"/>
      <use xlink:href="#DejaVuSerif-69" transform="translate(230.273438 0)"/>
      <use xlink:href="#DejaVuSerif-73" transform="translate(262.255859 0)"/>
      <use xlink:href="#DejaVuSerif-69" transform="translate(313.574219 0)"/>
      <use xlink:href="#DejaVuSerif-6f" transform="translate(345.556641 0)"/>
      <use xlink:href="#DejaVuSerif-6e" transform="translate(405.761719 0)"/>
     </g>
    </g>
    <g id="line2d_30">
     <path d="M 49.390938 177.85 
L 57.390938 177.85 
L 65.390938 177.85 
" style="fill: none; stroke-dasharray: 9.6,2.4,1.5,2.4; stroke-dashoffset: 0; stroke: #0f9d58; stroke-width: 1.5"/>
     <g>
      <use xlink:href="#ma2af82ae25" x="57.390938" y="177.85" style="fill: #0f9d58; stroke: #0f9d58; stroke-linejoin: miter"/>
     </g>
    </g>
    <g id="text_18">
     <!-- Recall -->
     <g transform="translate(71.790938 180.65) scale(0.08 -0.08)">
      <defs>
       <path id="DejaVuSerif-52" d="M 3066 2316 
Q 3284 2256 3442 2114 
Q 3600 1972 3725 1716 
L 4403 331 
L 4972 331 
L 4972 0 
L 3872 0 
L 3144 1484 
Q 2934 1916 2759 2042 
Q 2584 2169 2278 2169 
L 1581 2169 
L 1581 331 
L 2241 331 
L 2241 0 
L 353 0 
L 353 331 
L 947 331 
L 947 4331 
L 353 4331 
L 353 4666 
L 2719 4666 
Q 3400 4666 3770 4341 
Q 4141 4016 4141 3419 
Q 4141 2938 3870 2661 
Q 3600 2384 3066 2316 
z
M 1581 2503 
L 2503 2503 
Q 2975 2503 3200 2726 
Q 3425 2950 3425 3419 
Q 3425 3888 3200 4109 
Q 2975 4331 2503 4331 
L 1581 4331 
L 1581 2503 
z
" transform="scale(0.015625)"/>
      </defs>
      <use xlink:href="#DejaVuSerif-52"/>
      <use xlink:href="#DejaVuSerif-65" transform="translate(75.292969 0)"/>
      <use xlink:href="#DejaVuSerif-63" transform="translate(134.472656 0)"/>
      <use xlink:href="#DejaVuSerif-61" transform="translate(190.478516 0)"/>
      <use xlink:href="#DejaVuSerif-6c" transform="translate(250.097656 0)"/>
      <use xlink:href="#DejaVuSerif-6c" transform="translate(282.080078 0)"/>
     </g>
    </g>
   </g>
  </g>
  <g id="axes_2">
   <g id="patch_6">
    <path d="M 368.450937 275.74 
L 640.370937 275.74 
L 640.370937 57.66 
L 368.450937 57.66 
z
" style="fill: #ffffff"/>
   </g>
   <g id="patch_7">
    <path d="M 368.450937 265.827273 
L 577.620168 265.827273 
L 577.620168 249.643228 
L 368.450937 249.643228 
z
" clip-path="url(#p613dd29447)" style="fill: #0f9d58; opacity: 0.85; stroke: #ffffff; stroke-linejoin: miter"/>
   </g>
   <g id="patch_8">
    <path d="M 368.450937 245.597217 
L 577.620168 245.597217 
L 577.620168 229.413173 
L 368.450937 229.413173 
z
" clip-path="url(#p613dd29447)" style="fill: #0f9d58; opacity: 0.85; stroke: #ffffff; stroke-linejoin: miter"/>
   </g>
   <g id="patch_9">
    <path d="M 368.450937 225.367161 
L 577.620168 225.367161 
L 577.620168 209.183117 
L 368.450937 209.183117 
z
" clip-path="url(#p613dd29447)" style="fill: #0f9d58; opacity: 0.85; stroke: #ffffff; stroke-linejoin: miter"/>
   </g>
   <g id="patch_10">
    <path d="M 368.450937 205.137106 
L 577.620168 205.137106 
L 577.620168 188.953061 
L 368.450937 188.953061 
z
" clip-path="url(#p613dd29447)" style="fill: #0f9d58; opacity: 0.85; stroke: #ffffff; stroke-linejoin: miter"/>
   </g>
   <g id="patch_11">
    <path d="M 368.450937 184.90705 
L 577.620168 184.90705 
L 577.620168 168.723006 
L 368.450937 168.723006 
z
" clip-path="url(#p613dd29447)" style="fill: #0f9d58; opacity: 0.85; stroke: #ffffff; stroke-linejoin: miter"/>
   </g>
   <g id="patch_12">
    <path d="M 368.450937 164.676994 
L 577.620168 164.676994 
L 577.620168 148.49295 
L 368.450937 148.49295 
z
" clip-path="url(#p613dd29447)" style="fill: #0f9d58; opacity: 0.85; stroke: #ffffff; stroke-linejoin: miter"/>
   </g>
   <g id="patch_13">
    <path d="M 368.450937 144.446939 
L 577.620168 144.446939 
L 577.620168 128.262894 
L 368.450937 128.262894 
z
" clip-path="url(#p613dd29447)" style="fill: #0f9d58; opacity: 0.85; stroke: #ffffff; stroke-linejoin: miter"/>
   </g>
   <g id="patch_14">
    <path d="M 368.450937 124.216883 
L 577.620168 124.216883 
L 577.620168 108.032839 
L 368.450937 108.032839 
z
" clip-path="url(#p613dd29447)" style="fill: #0f9d58; opacity: 0.85; stroke: #ffffff; stroke-linejoin: miter"/>
   </g>
   <g id="patch_15">
    <path d="M 368.450937 103.986827 
L 577.620168 103.986827 
L 577.620168 87.802783 
L 368.450937 87.802783 
z
" clip-path="url(#p613dd29447)" style="fill: #0f9d58; opacity: 0.85; stroke: #ffffff; stroke-linejoin: miter"/>
   </g>
   <g id="patch_16">
    <path d="M 368.450937 83.756772 
L 577.620168 83.756772 
L 577.620168 67.572727 
L 368.450937 67.572727 
z
" clip-path="url(#p613dd29447)" style="fill: #0f9d58; opacity: 0.85; stroke: #ffffff; stroke-linejoin: miter"/>
   </g>
   <g id="matplotlib.axis_3">
    <g id="xtick_7">
     <g id="line2d_31">
      <path d="M 368.450937 275.74 
L 368.450937 57.66 
" clip-path="url(#p613dd29447)" style="fill: none; stroke-dasharray: 2.96,1.28; stroke-dashoffset: 0; stroke: #b0b0b0; stroke-opacity: 0.3; stroke-width: 0.8"/>
     </g>
     <g id="line2d_32">
      <g>
       <use xlink:href="#m998e97c4c2" x="368.450937" y="275.74" style="stroke: #000000; stroke-width: 0.8"/>
      </g>
     </g>
     <g id="text_19">
      <!-- 0.0 -->
      <g transform="translate(361.294531 289.578594) scale(0.09 -0.09)">
       <use xlink:href="#DejaVuSerif-30"/>
       <use xlink:href="#DejaVuSerif-2e" transform="translate(63.623047 0)"/>
       <use xlink:href="#DejaVuSerif-30" transform="translate(95.410156 0)"/>
      </g>
     </g>
    </g>
    <g id="xtick_8">
     <g id="line2d_33">
      <path d="M 410.284784 275.74 
L 410.284784 57.66 
" clip-path="url(#p613dd29447)" style="fill: none; stroke-dasharray: 2.96,1.28; stroke-dashoffset: 0; stroke: #b0b0b0; stroke-opacity: 0.3; stroke-width: 0.8"/>
     </g>
     <g id="line2d_34">
      <g>
       <use xlink:href="#m998e97c4c2" x="410.284784" y="275.74" style="stroke: #000000; stroke-width: 0.8"/>
      </g>
     </g>
     <g id="text_20">
      <!-- 0.2 -->
      <g transform="translate(403.128377 289.578594) scale(0.09 -0.09)">
       <use xlink:href="#DejaVuSerif-30"/>
       <use xlink:href="#DejaVuSerif-2e" transform="translate(63.623047 0)"/>
       <use xlink:href="#DejaVuSerif-32" transform="translate(95.410156 0)"/>
      </g>
     </g>
    </g>
    <g id="xtick_9">
     <g id="line2d_35">
      <path d="M 452.11863 275.74 
L 452.11863 57.66 
" clip-path="url(#p613dd29447)" style="fill: none; stroke-dasharray: 2.96,1.28; stroke-dashoffset: 0; stroke: #b0b0b0; stroke-opacity: 0.3; stroke-width: 0.8"/>
     </g>
     <g id="line2d_36">
      <g>
       <use xlink:href="#m998e97c4c2" x="452.11863" y="275.74" style="stroke: #000000; stroke-width: 0.8"/>
      </g>
     </g>
     <g id="text_21">
      <!-- 0.4 -->
      <g transform="translate(444.962224 289.578594) scale(0.09 -0.09)">
       <use xlink:href="#DejaVuSerif-30"/>
       <use xlink:href="#DejaVuSerif-2e" transform="translate(63.623047 0)"/>
       <use xlink:href="#DejaVuSerif-34" transform="translate(95.410156 0)"/>
      </g>
     </g>
    </g>
    <g id="xtick_10">
     <g id="line2d_37">
      <path d="M 493.952476 275.74 
L 493.952476 57.66 
" clip-path="url(#p613dd29447)" style="fill: none; stroke-dasharray: 2.96,1.28; stroke-dashoffset: 0; stroke: #b0b0b0; stroke-opacity: 0.3; stroke-width: 0.8"/>
     </g>
     <g id="line2d_38">
      <g>
       <use xlink:href="#m998e97c4c2" x="493.952476" y="275.74" style="stroke: #000000; stroke-width: 0.8"/>
      </g>
     </g>
     <g id="text_22">
      <!-- 0.6 -->
      <g transform="translate(486.79607 289.578594) scale(0.09 -0.09)">
       <use xlink:href="#DejaVuSerif-30"/>
       <use xlink:href="#DejaVuSerif-2e" transform="translate(63.623047 0)"/>
       <use xlink:href="#DejaVuSerif-36" transform="translate(95.410156 0)"/>
      </g>
     </g>
    </g>
    <g id="xtick_11">
     <g id="line2d_39">
      <path d="M 535.786322 275.74 
L 535.786322 57.66 
" clip-path="url(#p613dd29447)" style="fill: none; stroke-dasharray: 2.96,1.28; stroke-dashoffset: 0; stroke: #b0b0b0; stroke-opacity: 0.3; stroke-width: 0.8"/>
     </g>
     <g id="line2d_40">
      <g>
       <use xlink:href="#m998e97c4c2" x="535.786322" y="275.74" style="stroke: #000000; stroke-width: 0.8"/>
      </g>
     </g>
     <g id="text_23">
      <!-- 0.8 -->
      <g transform="translate(528.629916 289.578594) scale(0.09 -0.09)">
       <use xlink:href="#DejaVuSerif-30"/>
       <use xlink:href="#DejaVuSerif-2e" transform="translate(63.623047 0)"/>
       <use xlink:href="#DejaVuSerif-38" transform="translate(95.410156 0)"/>
      </g>
     </g>
    </g>
    <g id="xtick_12">
     <g id="line2d_41">
      <path d="M 577.620168 275.74 
L 577.620168 57.66 
" clip-path="url(#p613dd29447)" style="fill: none; stroke-dasharray: 2.96,1.28; stroke-dashoffset: 0; stroke: #b0b0b0; stroke-opacity: 0.3; stroke-width: 0.8"/>
     </g>
     <g id="line2d_42">
      <g>
       <use xlink:href="#m998e97c4c2" x="577.620168" y="275.74" style="stroke: #000000; stroke-width: 0.8"/>
      </g>
     </g>
     <g id="text_24">
      <!-- 1.0 -->
      <g transform="translate(570.463762 289.578594) scale(0.09 -0.09)">
       <use xlink:href="#DejaVuSerif-31"/>
       <use xlink:href="#DejaVuSerif-2e" transform="translate(63.623047 0)"/>
       <use xlink:href="#DejaVuSerif-30" transform="translate(95.410156 0)"/>
      </g>
     </g>
    </g>
    <g id="xtick_13">
     <g id="line2d_43">
      <path d="M 619.454014 275.74 
L 619.454014 57.66 
" clip-path="url(#p613dd29447)" style="fill: none; stroke-dasharray: 2.96,1.28; stroke-dashoffset: 0; stroke: #b0b0b0; stroke-opacity: 0.3; stroke-width: 0.8"/>
     </g>
     <g id="line2d_44">
      <g>
       <use xlink:href="#m998e97c4c2" x="619.454014" y="275.74" style="stroke: #000000; stroke-width: 0.8"/>
      </g>
     </g>
     <g id="text_25">
      <!-- 1.2 -->
      <g transform="translate(612.297608 289.578594) scale(0.09 -0.09)">
       <use xlink:href="#DejaVuSerif-31"/>
       <use xlink:href="#DejaVuSerif-2e" transform="translate(63.623047 0)"/>
       <use xlink:href="#DejaVuSerif-32" transform="translate(95.410156 0)"/>
      </g>
     </g>
    </g>
    <g id="text_26">
     <!-- Pass (1) / Fail (0) -->
     <g transform="translate(461.641406 303.04875) scale(0.1 -0.1)">
      <defs>
       <path id="DejaVuSerif-2f" d="M 1656 4666 
L 2156 4666 
L 500 -594 
L 0 -594 
L 1656 4666 
z
" transform="scale(0.015625)"/>
      </defs>
      <use xlink:href="#DejaVuSerif-50"/>
      <use xlink:href="#DejaVuSerif-61" transform="translate(62.785156 0)"/>
      <use xlink:href="#DejaVuSerif-73" transform="translate(122.404297 0)"/>
      <use xlink:href="#DejaVuSerif-73" transform="translate(173.722656 0)"/>
      <use xlink:href="#DejaVuSerif-20" transform="translate(225.041016 0)"/>
      <use xlink:href="#DejaVuSerif-28" transform="translate(256.828125 0)"/>
      <use xlink:href="#DejaVuSerif-31" transform="translate(295.841797 0)"/>
      <use xlink:href="#DejaVuSerif-29" transform="translate(359.464844 0)"/>
      <use xlink:href="#DejaVuSerif-20" transform="translate(398.478516 0)"/>
      <use xlink:href="#DejaVuSerif-2f" transform="translate(430.265625 0)"/>
      <use xlink:href="#DejaVuSerif-20" transform="translate(463.957031 0)"/>
      <use xlink:href="#DejaVuSerif-46" transform="translate(495.744141 0)"/>
      <use xlink:href="#DejaVuSerif-61" transform="translate(558.378906 0)"/>
      <use xlink:href="#DejaVuSerif-69" transform="translate(617.998047 0)"/>
      <use xlink:href="#DejaVuSerif-6c" transform="translate(649.980469 0)"/>
      <use xlink:href="#DejaVuSerif-20" transform="translate(681.962891 0)"/>
      <use xlink:href="#DejaVuSerif-28" transform="translate(713.75 0)"/>
      <use xlink:href="#DejaVuSerif-30" transform="translate(752.763672 0)"/>
      <use xlink:href="#DejaVuSerif-29" transform="translate(816.386719 0)"/>
     </g>
    </g>
   </g>
   <g id="matplotlib.axis_4">
    <g id="ytick_7">
     <g id="line2d_45">
      <path d="M 368.450937 257.73525 
L 640.370937 257.73525 
" clip-path="url(#p613dd29447)" style="fill: none; stroke-dasharray: 2.96,1.28; stroke-dashoffset: 0; stroke: #b0b0b0; stroke-opacity: 0.3; stroke-width: 0.8"/>
     </g>
     <g id="line2d_46">
      <g>
       <use xlink:href="#mb889c05182" x="368.450937" y="257.73525" style="stroke: #000000; stroke-width: 0.8"/>
      </g>
     </g>
     <g id="text_27">
      <!-- empty -->
      <g transform="translate(339.420625 256.907829) scale(0.07 -0.07)">
       <defs>
        <path id="DejaVuSerif-70" d="M 1313 1825 
L 1313 1497 
Q 1313 897 1542 583 
Q 1772 269 2209 269 
Q 2650 269 2876 622 
Q 3103 975 3103 1663 
Q 3103 2353 2876 2703 
Q 2650 3053 2209 3053 
Q 1772 3053 1542 2737 
Q 1313 2422 1313 1825 
z
M 738 2988 
L 184 2988 
L 184 3322 
L 1313 3322 
L 1313 2803 
Q 1481 3116 1742 3264 
Q 2003 3413 2388 3413 
Q 3000 3413 3387 2928 
Q 3775 2444 3775 1663 
Q 3775 881 3387 395 
Q 3000 -91 2388 -91 
Q 2003 -91 1742 57 
Q 1481 206 1313 519 
L 1313 -997 
L 1856 -997 
L 1856 -1331 
L 184 -1331 
L 184 -997 
L 738 -997 
L 738 2988 
z
" transform="scale(0.015625)"/>
        <path id="DejaVuSerif-79" d="M 1381 -609 
L 1600 -56 
L 359 2988 
L -19 2988 
L -19 3322 
L 1509 3322 
L 1509 2988 
L 978 2988 
L 1913 703 
L 2847 2988 
L 2350 2988 
L 2350 3322 
L 3597 3322 
L 3597 2988 
L 3225 2988 
L 1703 -750 
Q 1547 -1138 1356 -1280 
Q 1166 -1422 819 -1422 
Q 672 -1422 517 -1397 
Q 363 -1372 206 -1325 
L 206 -691 
L 500 -691 
Q 519 -903 608 -995 
Q 697 -1088 884 -1088 
Q 1056 -1088 1161 -992 
Q 1266 -897 1381 -609 
z
" transform="scale(0.015625)"/>
       </defs>
       <use xlink:href="#DejaVuSerif-65"/>
       <use xlink:href="#DejaVuSerif-6d" transform="translate(59.179688 0)"/>
       <use xlink:href="#DejaVuSerif-70" transform="translate(154.003906 0)"/>
       <use xlink:href="#DejaVuSerif-74" transform="translate(218.017578 0)"/>
       <use xlink:href="#DejaVuSerif-79" transform="translate(258.203125 0)"/>
      </g>
      <!-- dataframe -->
      <g transform="translate(324.9175 264.845829) scale(0.07 -0.07)">
       <use xlink:href="#DejaVuSerif-64"/>
       <use xlink:href="#DejaVuSerif-61" transform="translate(64.013672 0)"/>
       <use xlink:href="#DejaVuSerif-74" transform="translate(123.632812 0)"/>
       <use xlink:href="#DejaVuSerif-61" transform="translate(163.818359 0)"/>
       <use xlink:href="#DejaVuSerif-66" transform="translate(223.4375 0)"/>
       <use xlink:href="#DejaVuSerif-72" transform="translate(260.449219 0)"/>
       <use xlink:href="#DejaVuSerif-61" transform="translate(308.251953 0)"/>
       <use xlink:href="#DejaVuSerif-6d" transform="translate(367.871094 0)"/>
       <use xlink:href="#DejaVuSerif-65" transform="translate(462.695312 0)"/>
      </g>
     </g>
    </g>
    <g id="ytick_8">
     <g id="line2d_47">
      <path d="M 368.450937 237.505195 
L 640.370937 237.505195 
" clip-path="url(#p613dd29447)" style="fill: none; stroke-dasharray: 2.96,1.28; stroke-dashoffset: 0; stroke: #b0b0b0; stroke-opacity: 0.3; stroke-width: 0.8"/>
     </g>
     <g id="line2d_48">
      <g>
       <use xlink:href="#mb889c05182" x="368.450937" y="237.505195" style="stroke: #000000; stroke-width: 0.8"/>
      </g>
     </g>
     <g id="text_28">
      <!-- all -->
      <g transform="translate(352.799375 236.777304) scale(0.07 -0.07)">
       <use xlink:href="#DejaVuSerif-61"/>
       <use xlink:href="#DejaVuSerif-6c" transform="translate(59.619141 0)"/>
       <use xlink:href="#DejaVuSerif-6c" transform="translate(91.601562 0)"/>
      </g>
      <!-- nulls -->
      <g transform="translate(344.364375 244.615773) scale(0.07 -0.07)">
       <defs>
        <path id="DejaVuSerif-75" d="M 2266 3322 
L 3341 3322 
L 3341 331 
L 3884 331 
L 3884 0 
L 2766 0 
L 2766 588 
Q 2606 256 2353 82 
Q 2100 -91 1766 -91 
Q 1213 -91 952 223 
Q 691 538 691 1209 
L 691 2988 
L 172 2988 
L 172 3322 
L 1269 3322 
L 1269 1388 
Q 1269 781 1417 556 
Q 1566 331 1947 331 
Q 2347 331 2556 625 
Q 2766 919 2766 1478 
L 2766 2988 
L 2266 2988 
L 2266 3322 
z
" transform="scale(0.015625)"/>
       </defs>
       <use xlink:href="#DejaVuSerif-6e"/>
       <use xlink:href="#DejaVuSerif-75" transform="translate(64.404297 0)"/>
       <use xlink:href="#DejaVuSerif-6c" transform="translate(128.808594 0)"/>
       <use xlink:href="#DejaVuSerif-6c" transform="translate(160.791016 0)"/>
       <use xlink:href="#DejaVuSerif-73" transform="translate(192.773438 0)"/>
      </g>
     </g>
    </g>
    <g id="ytick_9">
     <g id="line2d_49">
      <path d="M 368.450937 217.275139 
L 640.370937 217.275139 
" clip-path="url(#p613dd29447)" style="fill: none; stroke-dasharray: 2.96,1.28; stroke-dashoffset: 0; stroke: #b0b0b0; stroke-opacity: 0.3; stroke-width: 0.8"/>
     </g>
     <g id="line2d_50">
      <g>
       <use xlink:href="#mb889c05182" x="368.450937" y="217.275139" style="stroke: #000000; stroke-width: 0.8"/>
      </g>
     </g>
     <g id="text_29">
      <!-- single -->
      <g transform="translate(340.248594 216.497483) scale(0.07 -0.07)">
       <defs>
        <path id="DejaVuSerif-67" d="M 3359 2988 
L 3359 72 
Q 3359 -644 2965 -1033 
Q 2572 -1422 1844 -1422 
Q 1516 -1422 1216 -1362 
Q 916 -1303 641 -1184 
L 641 -488 
L 941 -488 
Q 997 -813 1206 -963 
Q 1416 -1113 1806 -1113 
Q 2313 -1113 2548 -827 
Q 2784 -541 2784 72 
L 2784 519 
Q 2616 206 2355 57 
Q 2094 -91 1709 -91 
Q 1097 -91 708 395 
Q 319 881 319 1663 
Q 319 2444 706 2928 
Q 1094 3413 1709 3413 
Q 2094 3413 2355 3264 
Q 2616 3116 2784 2803 
L 2784 3322 
L 3909 3322 
L 3909 2988 
L 3359 2988 
z
M 2784 1825 
Q 2784 2422 2554 2737 
Q 2325 3053 1888 3053 
Q 1444 3053 1217 2703 
Q 991 2353 991 1663 
Q 991 975 1217 622 
Q 1444 269 1888 269 
Q 2325 269 2554 583 
Q 2784 897 2784 1497 
L 2784 1825 
z
" transform="scale(0.015625)"/>
       </defs>
       <use xlink:href="#DejaVuSerif-73"/>
       <use xlink:href="#DejaVuSerif-69" transform="translate(51.318359 0)"/>
       <use xlink:href="#DejaVuSerif-6e" transform="translate(83.300781 0)"/>
       <use xlink:href="#DejaVuSerif-67" transform="translate(147.705078 0)"/>
       <use xlink:href="#DejaVuSerif-6c" transform="translate(211.71875 0)"/>
       <use xlink:href="#DejaVuSerif-65" transform="translate(243.701172 0)"/>
      </g>
      <!-- row -->
      <g transform="translate(347.899375 224.435483) scale(0.07 -0.07)">
       <defs>
        <path id="DejaVuSerif-77" d="M 3072 3322 
L 3922 728 
L 4672 2988 
L 4191 2988 
L 4191 3322 
L 5394 3322 
L 5394 2988 
L 5025 2988 
L 4038 0 
L 3559 0 
L 2741 2484 
L 1919 0 
L 1459 0 
L 475 2988 
L 103 2988 
L 103 3322 
L 1606 3322 
L 1606 2988 
L 1069 2988 
L 1813 728 
L 2669 3322 
L 3072 3322 
z
" transform="scale(0.015625)"/>
       </defs>
       <use xlink:href="#DejaVuSerif-72"/>
       <use xlink:href="#DejaVuSerif-6f" transform="translate(47.802734 0)"/>
       <use xlink:href="#DejaVuSerif-77" transform="translate(108.007812 0)"/>
      </g>
     </g>
    </g>
    <g id="ytick_10">
     <g id="line2d_51">
      <path d="M 368.450937 197.045083 
L 640.370937 197.045083 
" clip-path="url(#p613dd29447)" style="fill: none; stroke-dasharray: 2.96,1.28; stroke-dashoffset: 0; stroke: #b0b0b0; stroke-opacity: 0.3; stroke-width: 0.8"/>
     </g>
     <g id="line2d_52">
      <g>
       <use xlink:href="#mb889c05182" x="368.450937" y="197.045083" style="stroke: #000000; stroke-width: 0.8"/>
      </g>
     </g>
     <g id="text_30">
      <!-- two -->
      <g transform="translate(348.432031 196.317193) scale(0.07 -0.07)">
       <use xlink:href="#DejaVuSerif-74"/>
       <use xlink:href="#DejaVuSerif-77" transform="translate(40.185547 0)"/>
       <use xlink:href="#DejaVuSerif-6f" transform="translate(125.78125 0)"/>
      </g>
      <!-- rows -->
      <g transform="translate(344.3075 204.155662) scale(0.07 -0.07)">
       <use xlink:href="#DejaVuSerif-72"/>
       <use xlink:href="#DejaVuSerif-6f" transform="translate(47.802734 0)"/>
       <use xlink:href="#DejaVuSerif-77" transform="translate(108.007812 0)"/>
       <use xlink:href="#DejaVuSerif-73" transform="translate(193.603516 0)"/>
      </g>
     </g>
    </g>
    <g id="ytick_11">
     <g id="line2d_53">
      <path d="M 368.450937 176.815028 
L 640.370937 176.815028 
" clip-path="url(#p613dd29447)" style="fill: none; stroke-dasharray: 2.96,1.28; stroke-dashoffset: 0; stroke: #b0b0b0; stroke-opacity: 0.3; stroke-width: 0.8"/>
     </g>
     <g id="line2d_54">
      <g>
       <use xlink:href="#mb889c05182" x="368.450937" y="176.815028" style="stroke: #000000; stroke-width: 0.8"/>
      </g>
     </g>
     <g id="text_31">
      <!-- all -->
      <g transform="translate(352.799375 176.087137) scale(0.07 -0.07)">
       <use xlink:href="#DejaVuSerif-61"/>
       <use xlink:href="#DejaVuSerif-6c" transform="translate(59.619141 0)"/>
       <use xlink:href="#DejaVuSerif-6c" transform="translate(91.601562 0)"/>
      </g>
      <!-- identical -->
      <g transform="translate(330.694687 183.925606) scale(0.07 -0.07)">
       <use xlink:href="#DejaVuSerif-69"/>
       <use xlink:href="#DejaVuSerif-64" transform="translate(31.982422 0)"/>
       <use xlink:href="#DejaVuSerif-65" transform="translate(95.996094 0)"/>
       <use xlink:href="#DejaVuSerif-6e" transform="translate(155.175781 0)"/>
       <use xlink:href="#DejaVuSerif-74" transform="translate(219.580078 0)"/>
       <use xlink:href="#DejaVuSerif-69" transform="translate(259.765625 0)"/>
       <use xlink:href="#DejaVuSerif-63" transform="translate(291.748047 0)"/>
       <use xlink:href="#DejaVuSerif-61" transform="translate(347.753906 0)"/>
       <use xlink:href="#DejaVuSerif-6c" transform="translate(407.373047 0)"/>
      </g>
     </g>
    </g>
    <g id="ytick_12">
     <g id="line2d_55">
      <path d="M 368.450937 156.584972 
L 640.370937 156.584972 
" clip-path="url(#p613dd29447)" style="fill: none; stroke-dasharray: 2.96,1.28; stroke-dashoffset: 0; stroke: #b0b0b0; stroke-opacity: 0.3; stroke-width: 0.8"/>
     </g>
     <g id="line2d_56">
      <g>
       <use xlink:href="#mb889c05182" x="368.450937" y="156.584972" style="stroke: #000000; stroke-width: 0.8"/>
      </g>
     </g>
     <g id="text_32">
      <!-- mixed -->
      <g transform="translate(340.0025 155.857082) scale(0.07 -0.07)">
       <defs>
        <path id="DejaVuSerif-78" d="M 1863 2028 
L 2559 2988 
L 2113 2988 
L 2113 3322 
L 3391 3322 
L 3391 2988 
L 2950 2988 
L 2059 1759 
L 3097 331 
L 3531 331 
L 3531 0 
L 1997 0 
L 1997 331 
L 2419 331 
L 1697 1325 
L 972 331 
L 1403 331 
L 1403 0 
L 141 0 
L 141 331 
L 581 331 
L 1497 1594 
L 488 2988 
L 78 2988 
L 78 3322 
L 1563 3322 
L 1563 2988 
L 1166 2988 
L 1863 2028 
z
" transform="scale(0.015625)"/>
       </defs>
       <use xlink:href="#DejaVuSerif-6d"/>
       <use xlink:href="#DejaVuSerif-69" transform="translate(94.824219 0)"/>
       <use xlink:href="#DejaVuSerif-78" transform="translate(126.806641 0)"/>
       <use xlink:href="#DejaVuSerif-65" transform="translate(183.203125 0)"/>
       <use xlink:href="#DejaVuSerif-64" transform="translate(242.382812 0)"/>
      </g>
      <!-- dtypes -->
      <g transform="translate(337.985625 163.69555) scale(0.07 -0.07)">
       <use xlink:href="#DejaVuSerif-64"/>
       <use xlink:href="#DejaVuSerif-74" transform="translate(64.013672 0)"/>
       <use xlink:href="#DejaVuSerif-79" transform="translate(104.199219 0)"/>
       <use xlink:href="#DejaVuSerif-70" transform="translate(160.693359 0)"/>
       <use xlink:href="#DejaVuSerif-65" transform="translate(224.707031 0)"/>
       <use xlink:href="#DejaVuSerif-73" transform="translate(283.886719 0)"/>
      </g>
     </g>
    </g>
    <g id="ytick_13">
     <g id="line2d_57">
      <path d="M 368.450937 136.354917 
L 640.370937 136.354917 
" clip-path="url(#p613dd29447)" style="fill: none; stroke-dasharray: 2.96,1.28; stroke-dashoffset: 0; stroke: #b0b0b0; stroke-opacity: 0.3; stroke-width: 0.8"/>
     </g>
     <g id="line2d_58">
      <g>
       <use xlink:href="#mb889c05182" x="368.450937" y="136.354917" style="stroke: #000000; stroke-width: 0.8"/>
      </g>
     </g>
     <g id="text_33">
      <!-- unicode -->
      <g transform="translate(333.436719 135.627026) scale(0.07 -0.07)">
       <use xlink:href="#DejaVuSerif-75"/>
       <use xlink:href="#DejaVuSerif-6e" transform="translate(64.404297 0)"/>
       <use xlink:href="#DejaVuSerif-69" transform="translate(128.808594 0)"/>
       <use xlink:href="#DejaVuSerif-63" transform="translate(160.791016 0)"/>
       <use xlink:href="#DejaVuSerif-6f" transform="translate(216.796875 0)"/>
       <use xlink:href="#DejaVuSerif-64" transform="translate(277.001953 0)"/>
       <use xlink:href="#DejaVuSerif-65" transform="translate(341.015625 0)"/>
      </g>
      <!-- text -->
      <g transform="translate(347.734219 143.465495) scale(0.07 -0.07)">
       <use xlink:href="#DejaVuSerif-74"/>
       <use xlink:href="#DejaVuSerif-65" transform="translate(40.185547 0)"/>
       <use xlink:href="#DejaVuSerif-78" transform="translate(99.365234 0)"/>
       <use xlink:href="#DejaVuSerif-74" transform="translate(155.761719 0)"/>
      </g>
     </g>
    </g>
    <g id="ytick_14">
     <g id="line2d_59">
      <path d="M 368.450937 116.124861 
L 640.370937 116.124861 
" clip-path="url(#p613dd29447)" style="fill: none; stroke-dasharray: 2.96,1.28; stroke-dashoffset: 0; stroke: #b0b0b0; stroke-opacity: 0.3; stroke-width: 0.8"/>
     </g>
     <g id="line2d_60">
      <g>
       <use xlink:href="#mb889c05182" x="368.450937" y="116.124861" style="stroke: #000000; stroke-width: 0.8"/>
      </g>
     </g>
     <g id="text_34">
      <!-- large -->
      <g transform="translate(343.068281 111.378205) scale(0.07 -0.07)">
       <use xlink:href="#DejaVuSerif-6c"/>
       <use xlink:href="#DejaVuSerif-61" transform="translate(31.982422 0)"/>
       <use xlink:href="#DejaVuSerif-72" transform="translate(91.601562 0)"/>
       <use xlink:href="#DejaVuSerif-67" transform="translate(139.404297 0)"/>
       <use xlink:href="#DejaVuSerif-65" transform="translate(203.417969 0)"/>
      </g>
      <!-- string -->
      <g transform="translate(340.471719 119.316205) scale(0.07 -0.07)">
       <use xlink:href="#DejaVuSerif-73"/>
       <use xlink:href="#DejaVuSerif-74" transform="translate(51.318359 0)"/>
       <use xlink:href="#DejaVuSerif-72" transform="translate(91.503906 0)"/>
       <use xlink:href="#DejaVuSerif-69" transform="translate(139.306641 0)"/>
       <use xlink:href="#DejaVuSerif-6e" transform="translate(171.289062 0)"/>
       <use xlink:href="#DejaVuSerif-67" transform="translate(235.693359 0)"/>
      </g>
      <!-- values -->
      <g transform="translate(338.839844 127.254205) scale(0.07 -0.07)">
       <use xlink:href="#DejaVuSerif-76"/>
       <use xlink:href="#DejaVuSerif-61" transform="translate(56.494141 0)"/>
       <use xlink:href="#DejaVuSerif-6c" transform="translate(116.113281 0)"/>
       <use xlink:href="#DejaVuSerif-75" transform="translate(148.095703 0)"/>
       <use xlink:href="#DejaVuSerif-65" transform="translate(212.5 0)"/>
       <use xlink:href="#DejaVuSerif-73" transform="translate(271.679688 0)"/>
      </g>
     </g>
    </g>
    <g id="ytick_15">
     <g id="line2d_61">
      <path d="M 368.450937 95.894805 
L 640.370937 95.894805 
" clip-path="url(#p613dd29447)" style="fill: none; stroke-dasharray: 2.96,1.28; stroke-dashoffset: 0; stroke: #b0b0b0; stroke-opacity: 0.3; stroke-width: 0.8"/>
     </g>
     <g id="line2d_62">
      <g>
       <use xlink:href="#mb889c05182" x="368.450937" y="95.894805" style="stroke: #000000; stroke-width: 0.8"/>
      </g>
     </g>
     <g id="text_35">
      <!-- extreme -->
      <g transform="translate(332.277344 91.297446) scale(0.07 -0.07)">
       <use xlink:href="#DejaVuSerif-65"/>
       <use xlink:href="#DejaVuSerif-78" transform="translate(59.179688 0)"/>
       <use xlink:href="#DejaVuSerif-74" transform="translate(115.576172 0)"/>
       <use xlink:href="#DejaVuSerif-72" transform="translate(155.761719 0)"/>
       <use xlink:href="#DejaVuSerif-65" transform="translate(203.564453 0)"/>
       <use xlink:href="#DejaVuSerif-6d" transform="translate(262.744141 0)"/>
       <use xlink:href="#DejaVuSerif-65" transform="translate(357.568359 0)"/>
      </g>
      <!-- numeric -->
      <g transform="translate(332.148281 99.135915) scale(0.07 -0.07)">
       <use xlink:href="#DejaVuSerif-6e"/>
       <use xlink:href="#DejaVuSerif-75" transform="translate(64.404297 0)"/>
       <use xlink:href="#DejaVuSerif-6d" transform="translate(128.808594 0)"/>
       <use xlink:href="#DejaVuSerif-65" transform="translate(223.632812 0)"/>
       <use xlink:href="#DejaVuSerif-72" transform="translate(282.8125 0)"/>
       <use xlink:href="#DejaVuSerif-69" transform="translate(330.615234 0)"/>
       <use xlink:href="#DejaVuSerif-63" transform="translate(362.597656 0)"/>
      </g>
      <!-- rang -->
      <g transform="translate(344.941875 106.974383) scale(0.07 -0.07)">
       <use xlink:href="#DejaVuSerif-72"/>
       <use xlink:href="#DejaVuSerif-61" transform="translate(47.802734 0)"/>
       <use xlink:href="#DejaVuSerif-6e" transform="translate(107.421875 0)"/>
       <use xlink:href="#DejaVuSerif-67" transform="translate(171.826172 0)"/>
      </g>
     </g>
    </g>
    <g id="ytick_16">
     <g id="line2d_63">
      <path d="M 368.450937 75.66475 
L 640.370937 75.66475 
" clip-path="url(#p613dd29447)" style="fill: none; stroke-dasharray: 2.96,1.28; stroke-dashoffset: 0; stroke: #b0b0b0; stroke-opacity: 0.3; stroke-width: 0.8"/>
     </g>
     <g id="line2d_64">
      <g>
       <use xlink:href="#mb889c05182" x="368.450937" y="75.66475" style="stroke: #000000; stroke-width: 0.8"/>
      </g>
     </g>
     <g id="text_36">
      <!-- corrupted -->
      <g transform="translate(326.198281 74.936859) scale(0.07 -0.07)">
       <use xlink:href="#DejaVuSerif-63"/>
       <use xlink:href="#DejaVuSerif-6f" transform="translate(56.005859 0)"/>
       <use xlink:href="#DejaVuSerif-72" transform="translate(116.210938 0)"/>
       <use xlink:href="#DejaVuSerif-72" transform="translate(164.013672 0)"/>
       <use xlink:href="#DejaVuSerif-75" transform="translate(211.816406 0)"/>
       <use xlink:href="#DejaVuSerif-70" transform="translate(276.220703 0)"/>
       <use xlink:href="#DejaVuSerif-74" transform="translate(340.234375 0)"/>
       <use xlink:href="#DejaVuSerif-65" transform="translate(380.419922 0)"/>
       <use xlink:href="#DejaVuSerif-64" transform="translate(439.599609 0)"/>
      </g>
      <!-- headers -->
      <g transform="translate(333.06375 82.775328) scale(0.07 -0.07)">
       <defs>
        <path id="DejaVuSerif-68" d="M 263 0 
L 263 331 
L 781 331 
L 781 4531 
L 231 4531 
L 231 4863 
L 1356 4863 
L 1356 2731 
Q 1516 3069 1770 3241 
Q 2025 3413 2363 3413 
Q 2913 3413 3172 3097 
Q 3431 2781 3431 2113 
L 3431 331 
L 3944 331 
L 3944 0 
L 2356 0 
L 2356 331 
L 2853 331 
L 2853 1931 
Q 2853 2541 2704 2764 
Q 2556 2988 2175 2988 
Q 1775 2988 1565 2697 
Q 1356 2406 1356 1850 
L 1356 331 
L 1856 331 
L 1856 0 
L 263 0 
z
" transform="scale(0.015625)"/>
       </defs>
       <use xlink:href="#DejaVuSerif-68"/>
       <use xlink:href="#DejaVuSerif-65" transform="translate(64.404297 0)"/>
       <use xlink:href="#DejaVuSerif-61" transform="translate(123.583984 0)"/>
       <use xlink:href="#DejaVuSerif-64" transform="translate(183.203125 0)"/>
       <use xlink:href="#DejaVuSerif-65" transform="translate(247.216797 0)"/>
       <use xlink:href="#DejaVuSerif-72" transform="translate(306.396484 0)"/>
       <use xlink:href="#DejaVuSerif-73" transform="translate(354.199219 0)"/>
      </g>
     </g>
    </g>
   </g>
   <g id="patch_17">
    <path d="M 368.450937 275.74 
L 368.450937 57.66 
" style="fill: none; stroke: #000000; stroke-width: 0.8; stroke-linejoin: miter; stroke-linecap: square"/>
   </g>
   <g id="patch_18">
    <path d="M 368.450937 275.74 
L 640.370937 275.74 
" style="fill: none; stroke: #000000; stroke-width: 0.8; stroke-linejoin: miter; stroke-linecap: square"/>
   </g>
   <g id="text_37">
    <!-- Pass rate: 100% -->
    <g transform="translate(514.869399 85.779777) scale(0.09 -0.09)">
     <defs>
      <path id="DejaVuSerif-Bold-50" d="M 300 0 
L 300 378 
L 897 378 
L 897 4288 
L 300 4288 
L 300 4666 
L 2956 4666 
Q 3734 4666 4193 4295 
Q 4653 3925 4653 3303 
Q 4653 2678 4192 2304 
Q 3731 1931 2956 1931 
L 2100 1931 
L 2100 378 
L 2853 378 
L 2853 0 
L 300 0 
z
M 2100 2309 
L 2450 2309 
Q 2856 2309 3098 2579 
Q 3341 2850 3341 3303 
Q 3341 3753 3100 4020 
Q 2859 4288 2450 4288 
L 2100 4288 
L 2100 2309 
z
" transform="scale(0.015625)"/>
      <path id="DejaVuSerif-Bold-61" d="M 3525 2041 
L 3525 378 
L 4000 378 
L 4000 0 
L 2419 0 
L 2419 422 
Q 2200 159 1931 34 
Q 1663 -91 1319 -91 
Q 809 -91 536 182 
Q 263 456 263 966 
Q 263 1525 655 1803 
Q 1047 2081 1838 2081 
L 2419 2081 
L 2419 2278 
Q 2419 2681 2228 2873 
Q 2038 3066 1638 3066 
Q 1306 3066 1126 2930 
Q 947 2794 872 2484 
L 519 2484 
L 519 3200 
Q 816 3306 1134 3359 
Q 1453 3413 1806 3413 
Q 2697 3413 3111 3081 
Q 3525 2750 3525 2041 
z
M 2419 1044 
L 2419 1709 
L 2003 1709 
Q 1694 1709 1528 1540 
Q 1363 1372 1363 1056 
Q 1363 741 1483 584 
Q 1603 428 1850 428 
Q 2106 428 2262 597 
Q 2419 766 2419 1044 
z
" transform="scale(0.015625)"/>
      <path id="DejaVuSerif-Bold-73" d="M 300 97 
L 300 1025 
L 653 1025 
Q 697 653 931 458 
Q 1166 263 1569 263 
Q 1906 263 2086 380 
Q 2266 497 2266 716 
Q 2266 916 2152 1025 
Q 2038 1134 1709 1216 
L 1253 1331 
Q 738 1459 506 1698 
Q 275 1938 275 2344 
Q 275 2884 650 3148 
Q 1025 3413 1806 3413 
Q 2100 3413 2433 3364 
Q 2766 3316 3169 3213 
L 3169 2375 
L 2816 2375 
Q 2788 2716 2573 2887 
Q 2359 3059 1959 3059 
Q 1622 3059 1448 2951 
Q 1275 2844 1275 2638 
Q 1275 2469 1375 2372 
Q 1475 2275 1734 2209 
L 2188 2094 
Q 2841 1928 3091 1684 
Q 3341 1441 3341 1006 
Q 3341 444 2939 176 
Q 2538 -91 1691 -91 
Q 1381 -91 1034 -44 
Q 688 3 300 97 
z
" transform="scale(0.015625)"/>
      <path id="DejaVuSerif-Bold-20" transform="scale(0.015625)"/>
      <path id="DejaVuSerif-Bold-72" d="M 3438 3359 
L 3438 2369 
L 3084 2369 
Q 3066 2634 2941 2764 
Q 2816 2894 2578 2894 
Q 2216 2894 2006 2575 
Q 1797 2256 1797 1691 
L 1797 378 
L 2400 378 
L 2400 0 
L 219 0 
L 219 378 
L 691 378 
L 691 2944 
L 184 2944 
L 184 3322 
L 1797 3322 
L 1797 2731 
Q 1959 3078 2226 3245 
Q 2494 3413 2881 3413 
Q 2978 3413 3117 3398 
Q 3256 3384 3438 3359 
z
" transform="scale(0.015625)"/>
      <path id="DejaVuSerif-Bold-74" d="M 634 2944 
L 153 2944 
L 153 3322 
L 634 3322 
L 634 4353 
L 1741 4353 
L 1741 3322 
L 2663 3322 
L 2663 2944 
L 1741 2944 
L 1741 909 
Q 1741 475 1809 369 
Q 1878 263 2059 263 
Q 2259 263 2356 397 
Q 2453 531 2459 813 
L 2925 813 
Q 2897 313 2651 111 
Q 2406 -91 1806 -91 
Q 1122 -91 878 123 
Q 634 338 634 909 
L 634 2944 
z
" transform="scale(0.015625)"/>
      <path id="DejaVuSerif-Bold-65" d="M 2566 1875 
Q 2566 2531 2444 2795 
Q 2322 3059 2028 3059 
Q 1744 3059 1620 2800 
Q 1497 2541 1497 1931 
L 1497 1875 
L 2566 1875 
z
M 3781 1503 
L 1497 1503 
L 1497 1478 
Q 1497 834 1690 548 
Q 1884 263 2316 263 
Q 2675 263 2897 453 
Q 3119 644 3181 1006 
L 3700 1006 
Q 3566 441 3166 175 
Q 2766 -91 2047 -91 
Q 1184 -91 723 364 
Q 263 819 263 1663 
Q 263 2488 734 2950 
Q 1206 3413 2047 3413 
Q 2872 3413 3312 2927 
Q 3753 2441 3781 1503 
z
" transform="scale(0.015625)"/>
      <path id="DejaVuSerif-Bold-3a" d="M 588 2541 
Q 588 2788 761 2963 
Q 934 3138 1178 3138 
Q 1422 3138 1597 2961 
Q 1772 2784 1772 2541 
Q 1772 2297 1598 2125 
Q 1425 1953 1178 1953 
Q 931 1953 759 2125 
Q 588 2297 588 2541 
z
M 588 506 
Q 588 750 761 925 
Q 934 1100 1178 1100 
Q 1422 1100 1597 925 
Q 1772 750 1772 506 
Q 1772 259 1597 84 
Q 1422 -91 1178 -91 
Q 934 -91 761 84 
Q 588 259 588 506 
z
" transform="scale(0.015625)"/>
      <path id="DejaVuSerif-Bold-31" d="M 878 0 
L 878 378 
L 1753 378 
L 1753 4153 
L 781 3578 
L 781 4044 
L 1953 4750 
L 2938 4750 
L 2938 378 
L 3816 378 
L 3816 0 
L 878 0 
z
" transform="scale(0.015625)"/>
      <path id="DejaVuSerif-Bold-30" d="M 2228 275 
Q 2603 275 2742 615 
Q 2881 956 2881 2328 
Q 2881 3691 2742 4037 
Q 2603 4384 2228 4384 
Q 1853 4384 1714 4043 
Q 1575 3703 1575 2328 
Q 1575 956 1714 615 
Q 1853 275 2228 275 
z
M 2228 -91 
Q 1294 -91 797 532 
Q 300 1156 300 2328 
Q 300 3500 797 4125 
Q 1294 4750 2228 4750 
Q 3159 4750 3656 4125 
Q 4153 3500 4153 2328 
Q 4153 1156 3656 532 
Q 3159 -91 2228 -91 
z
" transform="scale(0.015625)"/>
      <path id="DejaVuSerif-Bold-25" d="M 1381 4434 
Q 1181 4434 1093 4217 
Q 1006 4000 1006 3481 
Q 1006 2959 1093 2740 
Q 1181 2522 1381 2522 
Q 1584 2522 1671 2740 
Q 1759 2959 1759 3481 
Q 1759 4000 1671 4217 
Q 1584 4434 1381 4434 
z
M 1381 4750 
Q 1978 4750 2295 4423 
Q 2613 4097 2613 3481 
Q 2613 2866 2295 2537 
Q 1978 2209 1381 2209 
Q 788 2209 470 2537 
Q 153 2866 153 3481 
Q 153 4097 470 4423 
Q 788 4750 1381 4750 
z
M 4231 4750 
L 4769 4750 
L 1850 -91 
L 1313 -91 
L 4231 4750 
z
M 4697 2450 
Q 5294 2450 5609 2123 
Q 5925 1797 5925 1184 
Q 5925 569 5609 239 
Q 5294 -91 4697 -91 
Q 4103 -91 3786 239 
Q 3469 569 3469 1184 
Q 3469 1797 3786 2123 
Q 4103 2450 4697 2450 
z
M 4697 2138 
Q 4494 2138 4406 1920 
Q 4319 1703 4319 1184 
Q 4319 663 4408 444 
Q 4497 225 4697 225 
Q 4900 225 4987 444 
Q 5075 663 5075 1184 
Q 5075 1703 4987 1920 
Q 4900 2138 4697 2138 
z
" transform="scale(0.015625)"/>
     </defs>
     <use xlink:href="#DejaVuSerif-Bold-50"/>
     <use xlink:href="#DejaVuSerif-Bold-61" transform="translate(72.570312 0)"/>
     <use xlink:href="#DejaVuSerif-Bold-73" transform="translate(137.365234 0)"/>
     <use xlink:href="#DejaVuSerif-Bold-73" transform="translate(193.664062 0)"/>
     <use xlink:href="#DejaVuSerif-Bold-20" transform="translate(249.962891 0)"/>
     <use xlink:href="#DejaVuSerif-Bold-72" transform="translate(284.777344 0)"/>
     <use xlink:href="#DejaVuSerif-Bold-61" transform="translate(337.462891 0)"/>
     <use xlink:href="#DejaVuSerif-Bold-74" transform="translate(402.257812 0)"/>
     <use xlink:href="#DejaVuSerif-Bold-65" transform="translate(448.449219 0)"/>
     <use xlink:href="#DejaVuSerif-Bold-3a" transform="translate(512.072266 0)"/>
     <use xlink:href="#DejaVuSerif-Bold-20" transform="translate(548.986328 0)"/>
     <use xlink:href="#DejaVuSerif-Bold-31" transform="translate(583.800781 0)"/>
     <use xlink:href="#DejaVuSerif-Bold-30" transform="translate(653.380859 0)"/>
     <use xlink:href="#DejaVuSerif-Bold-30" transform="translate(722.960938 0)"/>
     <use xlink:href="#DejaVuSerif-Bold-25" transform="translate(792.541016 0)"/>
    </g>
   </g>
   <g id="text_38">
    <!-- (b) Adversarial Input Tests -->
    <g transform="translate(430.001094 51.66) scale(0.11 -0.11)">
     <defs>
      <path id="DejaVuSerif-62" d="M 738 331 
L 738 4531 
L 184 4531 
L 184 4863 
L 1313 4863 
L 1313 2803 
Q 1481 3116 1742 3264 
Q 2003 3413 2388 3413 
Q 3000 3413 3387 2928 
Q 3775 2444 3775 1663 
Q 3775 881 3387 395 
Q 3000 -91 2388 -91 
Q 2003 -91 1742 57 
Q 1481 206 1313 519 
L 1313 0 
L 184 0 
L 184 331 
L 738 331 
z
M 1313 1497 
Q 1313 897 1542 583 
Q 1772 269 2209 269 
Q 2650 269 2876 622 
Q 3103 975 3103 1663 
Q 3103 2353 2876 2703 
Q 2650 3053 2209 3053 
Q 1772 3053 1542 2737 
Q 1313 2422 1313 1825 
L 1313 1497 
z
" transform="scale(0.015625)"/>
      <path id="DejaVuSerif-41" d="M 1281 1691 
L 2994 1691 
L 2138 3909 
L 1281 1691 
z
M -38 0 
L -38 331 
L 372 331 
L 2034 4666 
L 2559 4666 
L 4225 331 
L 4684 331 
L 4684 0 
L 2988 0 
L 2988 331 
L 3506 331 
L 3116 1356 
L 1153 1356 
L 763 331 
L 1275 331 
L 1275 0 
L -38 0 
z
" transform="scale(0.015625)"/>
      <path id="DejaVuSerif-49" d="M 1581 331 
L 2175 331 
L 2175 0 
L 353 0 
L 353 331 
L 947 331 
L 947 4331 
L 353 4331 
L 353 4666 
L 2175 4666 
L 2175 4331 
L 1581 4331 
L 1581 331 
z
" transform="scale(0.015625)"/>
      <path id="DejaVuSerif-54" d="M 1222 0 
L 1222 331 
L 1819 331 
L 1819 4294 
L 447 4294 
L 447 3566 
L 63 3566 
L 63 4666 
L 4206 4666 
L 4206 3566 
L 3822 3566 
L 3822 4294 
L 2450 4294 
L 2450 331 
L 3047 331 
L 3047 0 
L 1222 0 
z
" transform="scale(0.015625)"/>
     </defs>
     <use xlink:href="#DejaVuSerif-28"/>
     <use xlink:href="#DejaVuSerif-62" transform="translate(39.013672 0)"/>
     <use xlink:href="#DejaVuSerif-29" transform="translate(103.027344 0)"/>
     <use xlink:href="#DejaVuSerif-20" transform="translate(142.041016 0)"/>
     <use xlink:href="#DejaVuSerif-41" transform="translate(173.828125 0)"/>
     <use xlink:href="#DejaVuSerif-64" transform="translate(246.044922 0)"/>
     <use xlink:href="#DejaVuSerif-76" transform="translate(310.058594 0)"/>
     <use xlink:href="#DejaVuSerif-65" transform="translate(366.552734 0)"/>
     <use xlink:href="#DejaVuSerif-72" transform="translate(425.732422 0)"/>
     <use xlink:href="#DejaVuSerif-73" transform="translate(473.535156 0)"/>
     <use xlink:href="#DejaVuSerif-61" transform="translate(524.853516 0)"/>
     <use xlink:href="#DejaVuSerif-72" transform="translate(584.472656 0)"/>
     <use xlink:href="#DejaVuSerif-69" transform="translate(632.275391 0)"/>
     <use xlink:href="#DejaVuSerif-61" transform="translate(664.257812 0)"/>
     <use xlink:href="#DejaVuSerif-6c" transform="translate(723.876953 0)"/>
     <use xlink:href="#DejaVuSerif-20" transform="translate(755.859375 0)"/>
     <use xlink:href="#DejaVuSerif-49" transform="translate(787.646484 0)"/>
     <use xlink:href="#DejaVuSerif-6e" transform="translate(827.148438 0)"/>
     <use xlink:href="#DejaVuSerif-70" transform="translate(891.552734 0)"/>
     <use xlink:href="#DejaVuSerif-75" transform="translate(955.566406 0)"/>
     <use xlink:href="#DejaVuSerif-74" transform="translate(1019.970703 0)"/>
     <use xlink:href="#DejaVuSerif-20" transform="translate(1060.15625 0)"/>
     <use xlink:href="#DejaVuSerif-54" transform="translate(1091.943359 0)"/>
     <use xlink:href="#DejaVuSerif-65" transform="translate(1150.892578 0)"/>
     <use xlink:href="#DejaVuSerif-73" transform="translate(1210.072266 0)"/>
     <use xlink:href="#DejaVuSerif-74" transform="translate(1261.390625 0)"/>
     <use xlink:href="#DejaVuSerif-73" transform="translate(1301.576172 0)"/>
    </g>
   </g>
  </g>
  <g id="text_39">
   <!-- Fig. 4: Robustness Analysis -->
   <g transform="translate(247.07625 15.558281) scale(0.11 -0.11)">
    <defs>
     <path id="DejaVuSerif-3a" d="M 666 325 
Q 666 500 786 622 
Q 906 744 1081 744 
Q 1256 744 1376 622 
Q 1497 500 1497 325 
Q 1497 150 1378 29 
Q 1259 -91 1081 -91 
Q 903 -91 784 29 
Q 666 150 666 325 
z
M 666 2363 
Q 666 2538 786 2658 
Q 906 2778 1081 2778 
Q 1259 2778 1378 2659 
Q 1497 2541 1497 2363 
Q 1497 2184 1378 2065 
Q 1259 1947 1081 1947 
Q 906 1947 786 2067 
Q 666 2188 666 2363 
z
" transform="scale(0.015625)"/>
    </defs>
    <use xlink:href="#DejaVuSerif-46"/>
    <use xlink:href="#DejaVuSerif-69" transform="translate(69.384766 0)"/>
    <use xlink:href="#DejaVuSerif-67" transform="translate(101.367188 0)"/>
    <use xlink:href="#DejaVuSerif-2e" transform="translate(165.380859 0)"/>
    <use xlink:href="#DejaVuSerif-20" transform="translate(197.167969 0)"/>
    <use xlink:href="#DejaVuSerif-34" transform="translate(228.955078 0)"/>
    <use xlink:href="#DejaVuSerif-3a" transform="translate(292.578125 0)"/>
    <use xlink:href="#DejaVuSerif-20" transform="translate(326.269531 0)"/>
    <use xlink:href="#DejaVuSerif-52" transform="translate(358.056641 0)"/>
    <use xlink:href="#DejaVuSerif-6f" transform="translate(433.349609 0)"/>
    <use xlink:href="#DejaVuSerif-62" transform="translate(493.554688 0)"/>
    <use xlink:href="#DejaVuSerif-75" transform="translate(557.568359 0)"/>
    <use xlink:href="#DejaVuSerif-73" transform="translate(621.972656 0)"/>
    <use xlink:href="#DejaVuSerif-74" transform="translate(673.291016 0)"/>
    <use xlink:href="#DejaVuSerif-6e" transform="translate(713.476562 0)"/>
    <use xlink:href="#DejaVuSerif-65" transform="translate(777.880859 0)"/>
    <use xlink:href="#DejaVuSerif-73" transform="translate(837.060547 0)"/>
    <use xlink:href="#DejaVuSerif-73" transform="translate(888.378906 0)"/>
    <use xlink:href="#DejaVuSerif-20" transform="translate(939.697266 0)"/>
    <use xlink:href="#DejaVuSerif-41" transform="translate(971.484375 0)"/>
    <use xlink:href="#DejaVuSerif-6e" transform="translate(1043.701172 0)"/>
    <use xlink:href="#DejaVuSerif-61" transform="translate(1108.105469 0)"/>
    <use xlink:href="#DejaVuSerif-6c" transform="translate(1167.724609 0)"/>
    <use xlink:href="#DejaVuSerif-79" transform="translate(1199.707031 0)"/>
    <use xlink:href="#DejaVuSerif-73" transform="translate(1256.201172 0)"/>
    <use xlink:href="#DejaVuSerif-69" transform="translate(1307.519531 0)"/>
    <use xlink:href="#DejaVuSerif-73" transform="translate(1339.501953 0)"/>
   </g>
  </g>
 </g>
 <defs>
  <clipPath id="pd3544f8744">
   <rect x="42.190938" y="57.66" width="271.92" height="218.08"/>
  </clipPath>
  <clipPath id="p613dd29447">
   <rect x="368.450937" y="57.66" width="271.92" height="218.08"/>
  </clipPath>
 </defs>
</svg>
